<svg xmlns="http://www.w3.org/2000/svg" xmlns:xlink="http://www.w3.org/1999/xlink" width="300" zoomAndPan="magnify" viewBox="0 0 224.87999 112.499997" height="150" preserveAspectRatio="xMidYMid meet" version="1.0"><defs><g/></defs><g fill="#478ee1" fill-opacity="0.5608"><g transform="translate(70.978195, 43.262303)"><g><path d="M 11.363281 -23.90625 L 11.289062 -24.898438 L 11.183594 -25.851562 C 11.160156 -26.40625 11.230469 -26.785156 11.472656 -27.253906 C 11.980469 -28.347656 11.980469 -28.347656 11.917969 -28.933594 C 11.820312 -29.8125 11.164062 -30.371094 10.285156 -30.273438 C 9.917969 -30.234375 9.410156 -30.140625 8.828125 -30.039062 C 7.671875 -29.761719 6.46875 -29.59375 4.820312 -29.410156 C 3.355469 -29.246094 2.695312 -29.210938 1.214844 -29.195312 C 0.585938 -29.164062 -0.0390625 -29.128906 -0.441406 -29.085938 C -1.429688 -28.976562 -1.957031 -28.363281 -1.847656 -27.375 C -1.785156 -26.824219 -1.78125 -26.789062 -1.050781 -25.867188 C -0.578125 -25.289062 -0.441406 -24.710938 -0.207031 -22.625 L 1.59375 -6.367188 C 1.824219 -4.28125 1.816406 -3.683594 1.480469 -3.019531 C 1 -2 0.972656 -1.925781 1.03125 -1.410156 C 1.132812 -0.496094 1.78125 0.0234375 2.699219 -0.078125 C 3.027344 -0.113281 3.535156 -0.207031 4.117188 -0.308594 C 5.0625 -0.488281 6.773438 -0.75 7.945312 -0.878906 C 12.414062 -1.375 14.980469 -1.621094 16.242188 -1.613281 C 16.832031 -1.644531 17.457031 -1.675781 17.714844 -1.703125 C 18.738281 -1.816406 19.097656 -2.265625 19.152344 -3.457031 C 19.269531 -5.730469 19.554688 -7.839844 19.933594 -9.769531 C 20.070312 -10.230469 20.097656 -10.640625 20.0625 -10.972656 C 19.984375 -11.667969 19.300781 -12.148438 18.496094 -12.058594 C 18.019531 -12.003906 17.875 -11.953125 17.261719 -11.476562 C 16.582031 -10.917969 15.9375 -10.699219 14.695312 -10.5625 C 12.9375 -10.367188 12.851562 -10.46875 12.605469 -12.703125 Z M 11.363281 -23.90625 "/></g></g></g><g fill="#478ee1" fill-opacity="0.5608"><g transform="translate(91.813215, 40.953566)"><g><path d="M 12.824219 -31.113281 C 8.722656 -30.65625 5.296875 -29.128906 2.898438 -26.710938 C 0.0976562 -23.882812 -1.300781 -19.09375 -0.75 -14.113281 C 0.253906 -5.070312 6.789062 0.0625 16.019531 -0.960938 C 25.5 -2.011719 30.648438 -8.402344 29.601562 -17.847656 C 29.074219 -22.609375 27.015625 -26.492188 23.878906 -28.703125 C 21.035156 -30.613281 16.851562 -31.558594 12.824219 -31.113281 Z M 13.6875 -21.976562 C 15.738281 -22.203125 17.019531 -20.34375 17.449219 -16.464844 C 17.863281 -12.730469 16.988281 -10.59375 15.011719 -10.375 C 12.960938 -10.148438 11.800781 -11.910156 11.363281 -15.863281 C 10.933594 -19.746094 11.675781 -21.753906 13.6875 -21.976562 Z M 13.6875 -21.976562 "/></g></g></g><g fill="#478ee1" fill-opacity="0.5608"><g transform="translate(123.816396, 37.407281)"><g><path d="M 9.644531 -30.722656 C 2.394531 -29.917969 -1.695312 -25.683594 -1.03125 -19.679688 C -0.558594 -15.394531 1.921875 -13.113281 6.941406 -12.296875 C 9.355469 -11.898438 10.230469 -11.363281 10.355469 -10.230469 C 10.472656 -9.203125 9.84375 -8.503906 8.671875 -8.375 C 7.390625 -8.230469 5.503906 -8.542969 3.957031 -9.113281 C 0.667969 -10.378906 0.667969 -10.378906 0.226562 -10.328125 C -0.433594 -10.257812 -0.949219 -9.570312 -0.871094 -8.875 C -0.839844 -8.582031 -0.71875 -8.148438 -0.515625 -7.652344 C 0.179688 -6.0625 0.667969 -4.335938 0.847656 -2.726562 C 1.023438 -1.152344 1.136719 -0.792969 1.542969 -0.46875 C 1.832031 -0.203125 2.441406 -0.046875 2.953125 -0.105469 C 3.320312 -0.144531 3.675781 -0.296875 4.015625 -0.554688 C 4.566406 -0.949219 4.671875 -1 4.855469 -1.019531 C 5.035156 -1.039062 5.261719 -1.027344 5.5625 -0.988281 C 8.015625 -0.589844 11.585938 -0.46875 13.601562 -0.691406 C 15.980469 -0.957031 18.800781 -1.933594 20.769531 -3.226562 C 23.578125 -4.984375 25.035156 -8.222656 24.644531 -11.738281 C 24.433594 -13.640625 23.785156 -15.164062 22.652344 -16.335938 C 21.269531 -17.777344 19.378906 -18.457031 15.4375 -18.910156 C 13.296875 -19.15625 12.460938 -19.691406 12.332031 -20.828125 C 12.214844 -21.890625 12.847656 -22.550781 14.054688 -22.6875 C 15.300781 -22.824219 17.140625 -22.621094 18.777344 -22.207031 C 20.691406 -21.679688 20.953125 -21.632812 21.394531 -21.683594 C 22.015625 -21.75 22.503906 -22.363281 22.4375 -22.984375 C 22.40625 -23.242188 22.25 -23.667969 22.007812 -24.160156 C 21.480469 -25.25 20.984375 -27.050781 20.828125 -28.476562 C 20.796875 -28.734375 20.773438 -28.953125 20.789062 -29.140625 C 20.792969 -29.4375 20.769531 -29.65625 20.753906 -29.804688 C 20.660156 -30.644531 19.78125 -31.214844 18.71875 -31.097656 C 18.425781 -31.066406 18.179688 -30.964844 17.867188 -30.78125 C 17.488281 -30.515625 17.382812 -30.46875 17.234375 -30.453125 C 17.050781 -30.429688 16.828125 -30.445312 16.5625 -30.488281 C 13.890625 -30.859375 11.695312 -30.949219 9.644531 -30.722656 Z M 9.644531 -30.722656 "/></g></g></g><g fill="#478ee1" fill-opacity="1"><g transform="translate(69.180583, 41.823339)"><g><path d="M 11.363281 -23.90625 L 11.289062 -24.898438 L 11.183594 -25.851562 C 11.160156 -26.40625 11.230469 -26.785156 11.472656 -27.253906 C 11.980469 -28.347656 11.980469 -28.347656 11.917969 -28.933594 C 11.820312 -29.8125 11.164062 -30.371094 10.285156 -30.273438 C 9.917969 -30.234375 9.410156 -30.140625 8.828125 -30.039062 C 7.671875 -29.761719 6.46875 -29.59375 4.820312 -29.410156 C 3.355469 -29.246094 2.695312 -29.210938 1.214844 -29.195312 C 0.585938 -29.164062 -0.0390625 -29.128906 -0.441406 -29.085938 C -1.429688 -28.976562 -1.957031 -28.363281 -1.847656 -27.375 C -1.785156 -26.824219 -1.78125 -26.789062 -1.050781 -25.867188 C -0.578125 -25.289062 -0.441406 -24.710938 -0.207031 -22.625 L 1.59375 -6.367188 C 1.824219 -4.28125 1.816406 -3.683594 1.480469 -3.019531 C 1 -2 0.972656 -1.925781 1.03125 -1.410156 C 1.132812 -0.496094 1.78125 0.0234375 2.699219 -0.078125 C 3.027344 -0.113281 3.535156 -0.207031 4.117188 -0.308594 C 5.0625 -0.488281 6.773438 -0.75 7.945312 -0.878906 C 12.414062 -1.375 14.980469 -1.621094 16.242188 -1.613281 C 16.832031 -1.644531 17.457031 -1.675781 17.714844 -1.703125 C 18.738281 -1.816406 19.097656 -2.265625 19.152344 -3.457031 C 19.269531 -5.730469 19.554688 -7.839844 19.933594 -9.769531 C 20.070312 -10.230469 20.097656 -10.640625 20.0625 -10.972656 C 19.984375 -11.667969 19.300781 -12.148438 18.496094 -12.058594 C 18.019531 -12.003906 17.875 -11.953125 17.261719 -11.476562 C 16.582031 -10.917969 15.9375 -10.699219 14.695312 -10.5625 C 12.9375 -10.367188 12.851562 -10.46875 12.605469 -12.703125 Z M 11.363281 -23.90625 "/></g></g></g><g fill="#478ee1" fill-opacity="1"><g transform="translate(90.015603, 39.514602)"><g><path d="M 12.824219 -31.113281 C 8.722656 -30.65625 5.296875 -29.128906 2.898438 -26.710938 C 0.0976562 -23.882812 -1.300781 -19.09375 -0.75 -14.113281 C 0.253906 -5.070312 6.789062 0.0625 16.019531 -0.960938 C 25.5 -2.011719 30.648438 -8.402344 29.601562 -17.847656 C 29.074219 -22.609375 27.015625 -26.492188 23.878906 -28.703125 C 21.035156 -30.613281 16.851562 -31.558594 12.824219 -31.113281 Z M 13.6875 -21.976562 C 15.738281 -22.203125 17.019531 -20.34375 17.449219 -16.464844 C 17.863281 -12.730469 16.988281 -10.59375 15.011719 -10.375 C 12.960938 -10.148438 11.800781 -11.910156 11.363281 -15.863281 C 10.933594 -19.746094 11.675781 -21.753906 13.6875 -21.976562 Z M 13.6875 -21.976562 "/></g></g></g><g fill="#478ee1" fill-opacity="1"><g transform="translate(122.018784, 35.968318)"><g><path d="M 9.644531 -30.722656 C 2.394531 -29.917969 -1.695312 -25.683594 -1.03125 -19.679688 C -0.558594 -15.394531 1.921875 -13.113281 6.941406 -12.296875 C 9.355469 -11.898438 10.230469 -11.363281 10.355469 -10.230469 C 10.472656 -9.203125 9.84375 -8.503906 8.671875 -8.375 C 7.390625 -8.230469 5.503906 -8.542969 3.957031 -9.113281 C 0.667969 -10.378906 0.667969 -10.378906 0.226562 -10.328125 C -0.433594 -10.257812 -0.949219 -9.570312 -0.871094 -8.875 C -0.839844 -8.582031 -0.71875 -8.148438 -0.515625 -7.652344 C 0.179688 -6.0625 0.667969 -4.335938 0.847656 -2.726562 C 1.023438 -1.152344 1.136719 -0.792969 1.542969 -0.46875 C 1.832031 -0.203125 2.441406 -0.046875 2.953125 -0.105469 C 3.320312 -0.144531 3.675781 -0.296875 4.015625 -0.554688 C 4.566406 -0.949219 4.671875 -1 4.855469 -1.019531 C 5.035156 -1.039062 5.261719 -1.027344 5.5625 -0.988281 C 8.015625 -0.589844 11.585938 -0.46875 13.601562 -0.691406 C 15.980469 -0.957031 18.800781 -1.933594 20.769531 -3.226562 C 23.578125 -4.984375 25.035156 -8.222656 24.644531 -11.738281 C 24.433594 -13.640625 23.785156 -15.164062 22.652344 -16.335938 C 21.269531 -17.777344 19.378906 -18.457031 15.4375 -18.910156 C 13.296875 -19.15625 12.460938 -19.691406 12.332031 -20.828125 C 12.214844 -21.890625 12.847656 -22.550781 14.054688 -22.6875 C 15.300781 -22.824219 17.140625 -22.621094 18.777344 -22.207031 C 20.691406 -21.679688 20.953125 -21.632812 21.394531 -21.683594 C 22.015625 -21.75 22.503906 -22.363281 22.4375 -22.984375 C 22.40625 -23.242188 22.25 -23.667969 22.007812 -24.160156 C 21.480469 -25.25 20.984375 -27.050781 20.828125 -28.476562 C 20.796875 -28.734375 20.773438 -28.953125 20.789062 -29.140625 C 20.792969 -29.4375 20.769531 -29.65625 20.753906 -29.804688 C 20.660156 -30.644531 19.78125 -31.214844 18.71875 -31.097656 C 18.425781 -31.066406 18.179688 -30.964844 17.867188 -30.78125 C 17.488281 -30.515625 17.382812 -30.46875 17.234375 -30.453125 C 17.050781 -30.429688 16.828125 -30.445312 16.5625 -30.488281 C 13.890625 -30.859375 11.695312 -30.949219 9.644531 -30.722656 Z M 9.644531 -30.722656 "/></g></g></g><g fill="#478ee1" fill-opacity="0.5608"><g transform="translate(9.68011, 101.901818)"><g><path d="M 1.628906 -6.371094 C 1.859375 -4.285156 1.851562 -3.691406 1.519531 -3.023438 C 1.039062 -2.003906 1.007812 -1.929688 1.066406 -1.414062 C 1.171875 -0.464844 1.78125 0.0234375 2.734375 -0.0820312 C 3.0625 -0.117188 3.535156 -0.207031 4.152344 -0.3125 C 5.171875 -0.5 6.738281 -0.746094 8.164062 -0.90625 C 9.8125 -1.085938 11.324219 -1.179688 12.324219 -1.179688 C 12.839844 -1.199219 13.320312 -1.214844 13.578125 -1.246094 C 14.457031 -1.34375 14.941406 -1.988281 14.839844 -2.90625 C 14.78125 -3.417969 14.738281 -3.488281 14.042969 -4.410156 C 13.609375 -4.957031 13.433594 -5.566406 13.277344 -6.957031 C 13.183594 -7.800781 13.445312 -8.125 14.214844 -8.210938 C 14.46875 -8.238281 14.761719 -8.269531 15.097656 -8.269531 C 15.796875 -8.3125 16.308594 -8.367188 16.636719 -8.40625 C 23.777344 -9.195312 27.832031 -14.09375 27.066406 -21.015625 C 26.65625 -24.710938 24.675781 -27.867188 21.886719 -29.296875 C 19.40625 -30.582031 16.363281 -30.949219 12.226562 -30.488281 C 11.457031 -30.402344 10.289062 -30.238281 8.832031 -30.003906 C 6.429688 -29.625 5.554688 -29.492188 4.492188 -29.371094 C 3.320312 -29.242188 2.695312 -29.210938 1.25 -29.199219 C 0.621094 -29.167969 0.03125 -29.136719 -0.371094 -29.09375 C -1.429688 -28.976562 -1.921875 -28.367188 -1.808594 -27.378906 C -1.753906 -26.863281 -1.707031 -26.796875 -1.011719 -25.871094 C -0.542969 -25.292969 -0.402344 -24.714844 -0.171875 -22.628906 Z M 10.855469 -20.773438 C 10.726562 -21.945312 10.921875 -22.191406 12.242188 -22.335938 C 14.765625 -22.617188 16.042969 -21.792969 16.277344 -19.707031 C 16.519531 -17.511719 15.394531 -16.273438 12.871094 -15.992188 C 11.769531 -15.871094 11.375 -16.085938 11.285156 -16.894531 Z M 10.855469 -20.773438 "/></g></g></g><g fill="#478ee1" fill-opacity="0.5608"><g transform="translate(38.93702, 98.659849)"><g><path d="M 16.386719 -7.339844 C 18.214844 -7.542969 18.921875 -7.210938 19.054688 -6.003906 C 19.109375 -5.492188 19.058594 -5.300781 18.652344 -4.625 C 18.402344 -4.1875 18.328125 -3.847656 18.371094 -3.480469 C 18.480469 -2.492188 19.210938 -1.90625 20.128906 -2.007812 C 20.421875 -2.039062 20.890625 -2.128906 21.4375 -2.226562 C 22.308594 -2.398438 24.019531 -2.660156 25.265625 -2.800781 C 26.472656 -2.933594 28.714844 -3.109375 29.714844 -3.144531 C 30.414062 -3.183594 31.039062 -3.21875 31.367188 -3.253906 C 32.246094 -3.351562 32.699219 -3.957031 32.59375 -4.910156 C 32.542969 -5.386719 32.402344 -5.628906 31.894531 -6.203125 C 30.960938 -7.285156 30.863281 -7.496094 29.972656 -10.179688 C 28.695312 -14.003906 25.257812 -21.925781 23.148438 -25.917969 C 20.792969 -30.4375 20.027344 -31.355469 18.816406 -31.21875 C 18.523438 -31.1875 18.089844 -31.101562 17.582031 -31.007812 C 16.675781 -30.796875 15.222656 -30.5625 13.648438 -30.386719 C 11.632812 -30.164062 9.539062 -30.007812 8.757812 -30.03125 C 8.347656 -30.023438 7.90625 -30.011719 7.722656 -29.992188 C 6.585938 -29.863281 6.085938 -29.03125 4.988281 -25.574219 C 3.492188 -20.996094 1.824219 -12.988281 1.148438 -7.355469 C 0.921875 -5.402344 0.796875 -4.5 0.742188 -4.34375 C 0.566406 -3.585938 0.570312 -3.546875 -0.0390625 -2.703125 C -0.386719 -2.144531 -0.527344 -1.757812 -0.476562 -1.28125 C -0.375 -0.367188 0.28125 0.191406 1.195312 0.0898438 C 1.453125 0.0625 1.925781 -0.0273438 2.46875 -0.125 C 3.265625 -0.289062 5.164062 -0.570312 6.335938 -0.703125 C 7.398438 -0.820312 8.425781 -0.898438 9.242188 -0.875 C 9.6875 -0.886719 10.09375 -0.894531 10.351562 -0.925781 C 11.046875 -1 11.523438 -1.722656 11.425781 -2.601562 C 11.359375 -3.1875 11.261719 -3.398438 10.757812 -3.933594 C 10.417969 -4.34375 10.273438 -4.621094 10.230469 -5.027344 C 10.109375 -6.125 10.710938 -6.710938 12.210938 -6.875 Z M 12.773438 -14.5 C 11.566406 -14.367188 11.097656 -14.574219 11.015625 -15.34375 C 10.925781 -16.148438 11.289062 -18.226562 11.898438 -20.40625 C 12.324219 -21.902344 12.542969 -22.296875 12.980469 -22.34375 C 13.382812 -22.390625 13.511719 -22.253906 14.511719 -20.253906 C 15.269531 -18.742188 16.015625 -16.710938 16.097656 -15.945312 C 16.179688 -15.210938 15.742188 -14.828125 14.753906 -14.71875 Z M 12.773438 -14.5 "/></g></g></g><g fill="#478ee1" fill-opacity="0.5608"><g transform="translate(71.269747, 95.077047)"><g><path d="M 1.59375 -6.367188 C 1.820312 -4.316406 1.820312 -3.648438 1.519531 -3.023438 C 0.976562 -1.886719 0.976562 -1.886719 1.046875 -1.265625 C 1.136719 -0.460938 1.78125 0.0234375 2.625 -0.0703125 C 2.917969 -0.101562 3.390625 -0.191406 3.824219 -0.277344 C 4.835938 -0.5 5.382812 -0.597656 6.078125 -0.671875 C 6.882812 -0.761719 8.355469 -0.851562 9.246094 -0.839844 C 9.800781 -0.863281 10.355469 -0.886719 10.609375 -0.917969 C 11.527344 -1.019531 12.050781 -1.632812 11.964844 -2.402344 C 11.917969 -2.839844 11.804688 -3.199219 11.632812 -3.402344 C 10.589844 -4.769531 10.589844 -4.769531 10.308594 -7.332031 L 10 -10.117188 C 9.980469 -10.296875 9.945312 -10.589844 9.941406 -10.960938 L 9.855469 -11.730469 C 9.828125 -11.988281 9.804688 -12.207031 9.742188 -12.421875 C 9.679688 -12.675781 9.617188 -12.890625 9.609375 -12.964844 C 9.578125 -13.257812 9.707031 -13.417969 10 -13.453125 C 10.367188 -13.492188 10.609375 -13.296875 11.171875 -12.582031 L 17.957031 -3.546875 C 18.828125 -2.347656 19.46875 -1.933594 20.238281 -2.019531 C 20.457031 -2.042969 20.890625 -2.128906 21.363281 -2.21875 C 21.800781 -2.304688 24.496094 -2.714844 25.191406 -2.792969 C 25.886719 -2.867188 27.433594 -2.964844 28.429688 -3.003906 C 29.09375 -3.039062 29.683594 -3.066406 30.050781 -3.109375 C 31.003906 -3.214844 31.53125 -3.789062 31.4375 -4.632812 C 31.394531 -5.035156 31.285156 -5.355469 31.109375 -5.597656 L 30.59375 -6.242188 C 30.414062 -6.519531 30.277344 -6.765625 30.164062 -7.085938 C 30.050781 -7.445312 30.042969 -7.519531 29.789062 -9.492188 L 27.988281 -25.75 C 27.757812 -27.800781 27.757812 -28.46875 28.054688 -29.128906 C 28.597656 -30.265625 28.597656 -30.265625 28.527344 -30.886719 C 28.441406 -31.691406 27.789062 -32.214844 26.945312 -32.121094 C 26.726562 -32.097656 26.253906 -32.007812 25.746094 -31.914062 C 25.132812 -31.769531 23.351562 -31.460938 22.835938 -31.40625 C 22.214844 -31.335938 20.1875 -31.222656 19.671875 -31.203125 C 18.890625 -31.226562 18.855469 -31.222656 18.707031 -31.207031 C 17.9375 -31.121094 17.417969 -30.472656 17.507812 -29.667969 C 17.550781 -29.261719 17.664062 -28.90625 17.835938 -28.703125 C 18.742188 -27.542969 18.792969 -27.4375 18.941406 -26.414062 L 19.160156 -24.769531 L 19.425781 -22.390625 C 19.523438 -21.179688 19.523438 -21.179688 19.554688 -20.886719 C 19.609375 -20.410156 19.652344 -20.007812 19.710938 -19.828125 C 19.78125 -19.503906 19.851562 -19.214844 19.863281 -19.105469 C 19.886719 -18.882812 19.761719 -18.683594 19.503906 -18.65625 C 19.175781 -18.621094 18.855469 -18.84375 18.378906 -19.457031 L 11.386719 -28.691406 C 10.480469 -29.851562 9.957031 -30.238281 9.296875 -30.164062 C 9.113281 -30.144531 8.753906 -30.066406 8.320312 -29.945312 C 7.78125 -29.8125 6.285156 -29.570312 5.222656 -29.453125 C 4.457031 -29.367188 2.359375 -29.210938 1.070312 -29.140625 C -0.109375 -29.085938 -0.441406 -29.085938 -0.664062 -29.0625 C -1.542969 -28.964844 -1.964844 -28.433594 -1.867188 -27.554688 C -1.820312 -27.117188 -1.703125 -26.757812 -1.535156 -26.554688 C -0.535156 -25.21875 -0.488281 -25.152344 -0.207031 -22.625 Z M 1.59375 -6.367188 "/></g></g></g><g fill="#478ee1" fill-opacity="0.5608"><g transform="translate(104.041877, 91.445554)"><g><path d="M 23.566406 -17.808594 C 24.921875 -17.957031 25.101562 -18.015625 25.519531 -18.246094 C 25.96875 -18.519531 26.171875 -19.0625 26.101562 -19.683594 C 26.0625 -20.011719 25.980469 -20.449219 25.894531 -20.882812 C 25.464844 -22.761719 25.230469 -24.183594 25.082031 -25.539062 C 25.050781 -25.832031 25.019531 -26.085938 25.03125 -26.3125 C 24.972656 -27.195312 24.925781 -27.929688 24.910156 -28.078125 C 24.792969 -29.140625 24.140625 -29.695312 22.183594 -30.296875 C 19.535156 -31.113281 15.863281 -31.449219 12.972656 -31.128906 C 8.90625 -30.675781 5.164062 -29.003906 2.703125 -26.46875 C -0.164062 -23.554688 -1.34375 -19.496094 -0.785156 -14.441406 C 0.316406 -4.519531 6.570312 0.0859375 17.261719 -1.097656 C 20.59375 -1.464844 24.117188 -2.449219 25.710938 -3.480469 C 26.542969 -3.980469 26.746094 -4.484375 26.746094 -6.152344 C 26.773438 -7.933594 26.9375 -9.136719 27.394531 -11.339844 C 27.546875 -11.984375 27.589844 -12.621094 27.542969 -13.023438 C 27.464844 -13.71875 26.820312 -14.203125 26.125 -14.125 C 25.902344 -14.101562 25.613281 -14.03125 25.292969 -13.921875 C 22.074219 -12.863281 19.910156 -12.324219 18.078125 -12.121094 C 13.355469 -11.597656 11.285156 -12.890625 10.875 -16.589844 C 10.539062 -19.628906 11.488281 -21.4375 13.574219 -21.667969 C 15.148438 -21.84375 16.050781 -21.054688 16.242188 -19.332031 C 16.429688 -17.316406 16.828125 -17.0625 19.097656 -17.3125 Z M 23.566406 -17.808594 "/></g></g></g><g fill="#478ee1" fill-opacity="0.5608"><g transform="translate(133.445253, 88.187355)"><g><path d="M 1.628906 -6.371094 C 1.859375 -4.285156 1.851562 -3.691406 1.519531 -3.023438 C 1.039062 -2.003906 1.007812 -1.929688 1.066406 -1.414062 C 1.167969 -0.5 1.820312 0.0195312 2.734375 -0.0820312 C 3.027344 -0.113281 3.570312 -0.210938 4.152344 -0.3125 C 5.0625 -0.488281 6.699219 -0.742188 7.726562 -0.855469 C 8.933594 -0.988281 10.738281 -1.117188 11.554688 -1.09375 C 12.109375 -1.121094 12.589844 -1.136719 12.808594 -1.160156 C 13.648438 -1.253906 14.167969 -1.941406 14.070312 -2.820312 C 14.011719 -3.332031 13.964844 -3.4375 13.273438 -4.324219 C 12.800781 -4.902344 12.667969 -5.445312 12.429688 -7.566406 L 12.257812 -9.140625 C 12.023438 -11.265625 12.238281 -11.660156 13.664062 -11.820312 L 15.167969 -11.984375 C 16.523438 -12.136719 16.824219 -11.761719 17.058594 -9.636719 L 17.226562 -8.097656 L 17.300781 -7.105469 L 17.40625 -6.15625 C 17.433594 -5.566406 17.363281 -5.222656 17.117188 -4.75 C 16.605469 -3.691406 16.609375 -3.65625 16.667969 -3.109375 C 16.761719 -2.265625 17.421875 -1.671875 18.191406 -1.757812 C 18.335938 -1.773438 18.335938 -1.773438 19.058594 -1.964844 C 19.671875 -2.105469 21.640625 -2.398438 22.960938 -2.542969 C 24.277344 -2.691406 26.410156 -2.851562 27.191406 -2.828125 C 27.707031 -2.847656 28.1875 -2.863281 28.40625 -2.886719 C 29.25 -2.980469 29.765625 -3.667969 29.667969 -4.546875 C 29.613281 -5.058594 29.558594 -5.203125 28.871094 -6.054688 C 28.398438 -6.632812 28.269531 -7.136719 28.03125 -9.296875 L 26.230469 -25.554688 C 25.980469 -27.789062 26.011719 -28.199219 26.304688 -28.898438 C 26.753906 -29.839844 26.804688 -30.066406 26.746094 -30.578125 C 26.648438 -31.457031 25.996094 -32.015625 25.152344 -31.921875 C 24.859375 -31.890625 24.242188 -31.785156 23.621094 -31.679688 C 22.574219 -31.449219 21.117188 -31.214844 20.089844 -31.101562 C 19.027344 -30.984375 17.375 -30.875 16.445312 -30.882812 C 15.890625 -30.859375 15.375 -30.839844 15.082031 -30.804688 C 14.203125 -30.707031 13.683594 -30.058594 13.78125 -29.179688 C 13.847656 -28.554688 13.890625 -28.523438 14.585938 -27.601562 C 15.015625 -27.054688 15.117188 -26.808594 15.242188 -25.671875 L 15.425781 -24.355469 L 15.566406 -23.113281 C 15.800781 -20.988281 15.613281 -20.671875 14.074219 -20.5 L 12.71875 -20.351562 C 11.183594 -20.179688 11.011719 -20.382812 10.78125 -22.472656 L 10.628906 -23.824219 C 10.394531 -25.949219 10.40625 -26.507812 10.742188 -27.175781 C 11.222656 -28.191406 11.246094 -28.304688 11.1875 -28.816406 C 11.085938 -29.734375 10.433594 -30.289062 9.554688 -30.191406 C 9.222656 -30.15625 8.679688 -30.058594 8.097656 -29.957031 C 7.046875 -29.730469 5.664062 -29.503906 4.417969 -29.363281 C 3.320312 -29.242188 2.65625 -29.207031 1.25 -29.199219 C 0.621094 -29.167969 -0.00390625 -29.132812 -0.40625 -29.089844 C -1.394531 -28.980469 -1.921875 -28.367188 -1.808594 -27.378906 C -1.75 -26.828125 -1.707031 -26.796875 -1.011719 -25.871094 C -0.542969 -25.292969 -0.402344 -24.714844 -0.171875 -22.628906 Z M 1.628906 -6.371094 "/></g></g></g><g fill="#478ee1" fill-opacity="0.5608"><g transform="translate(164.459771, 84.750624)"><g><path d="M 12.824219 -31.113281 C 8.722656 -30.65625 5.296875 -29.128906 2.898438 -26.710938 C 0.0976562 -23.882812 -1.300781 -19.09375 -0.75 -14.113281 C 0.253906 -5.070312 6.789062 0.0625 16.019531 -0.960938 C 25.5 -2.011719 30.648438 -8.402344 29.601562 -17.847656 C 29.074219 -22.609375 27.015625 -26.492188 23.878906 -28.703125 C 21.035156 -30.613281 16.851562 -31.558594 12.824219 -31.113281 Z M 13.6875 -21.976562 C 15.738281 -22.203125 17.019531 -20.34375 17.449219 -16.464844 C 17.863281 -12.730469 16.988281 -10.59375 15.011719 -10.375 C 12.960938 -10.148438 11.800781 -11.910156 11.363281 -15.863281 C 10.933594 -19.746094 11.675781 -21.753906 13.6875 -21.976562 Z M 13.6875 -21.976562 "/></g></g></g><g fill="#478ee1" fill-opacity="0.5608"><g transform="translate(196.46294, 81.204341)"><g><path d="M 9.644531 -30.722656 C 2.394531 -29.917969 -1.695312 -25.683594 -1.03125 -19.679688 C -0.558594 -15.394531 1.921875 -13.113281 6.941406 -12.296875 C 9.355469 -11.898438 10.230469 -11.363281 10.355469 -10.230469 C 10.472656 -9.203125 9.84375 -8.503906 8.671875 -8.375 C 7.390625 -8.230469 5.503906 -8.542969 3.957031 -9.113281 C 0.667969 -10.378906 0.667969 -10.378906 0.226562 -10.328125 C -0.433594 -10.257812 -0.949219 -9.570312 -0.871094 -8.875 C -0.839844 -8.582031 -0.71875 -8.148438 -0.515625 -7.652344 C 0.179688 -6.0625 0.667969 -4.335938 0.847656 -2.726562 C 1.023438 -1.152344 1.136719 -0.792969 1.542969 -0.46875 C 1.832031 -0.203125 2.441406 -0.046875 2.953125 -0.105469 C 3.320312 -0.144531 3.675781 -0.296875 4.015625 -0.554688 C 4.566406 -0.949219 4.671875 -1 4.855469 -1.019531 C 5.035156 -1.039062 5.261719 -1.027344 5.5625 -0.988281 C 8.015625 -0.589844 11.585938 -0.46875 13.601562 -0.691406 C 15.980469 -0.957031 18.800781 -1.933594 20.769531 -3.226562 C 23.578125 -4.984375 25.035156 -8.222656 24.644531 -11.738281 C 24.433594 -13.640625 23.785156 -15.164062 22.652344 -16.335938 C 21.269531 -17.777344 19.378906 -18.457031 15.4375 -18.910156 C 13.296875 -19.15625 12.460938 -19.691406 12.332031 -20.828125 C 12.214844 -21.890625 12.847656 -22.550781 14.054688 -22.6875 C 15.300781 -22.824219 17.140625 -22.621094 18.777344 -22.207031 C 20.691406 -21.679688 20.953125 -21.632812 21.394531 -21.683594 C 22.015625 -21.75 22.503906 -22.363281 22.4375 -22.984375 C 22.40625 -23.242188 22.25 -23.667969 22.007812 -24.160156 C 21.480469 -25.25 20.984375 -27.050781 20.828125 -28.476562 C 20.796875 -28.734375 20.773438 -28.953125 20.789062 -29.140625 C 20.792969 -29.4375 20.769531 -29.65625 20.753906 -29.804688 C 20.660156 -30.644531 19.78125 -31.214844 18.71875 -31.097656 C 18.425781 -31.066406 18.179688 -30.964844 17.867188 -30.78125 C 17.488281 -30.515625 17.382812 -30.46875 17.234375 -30.453125 C 17.050781 -30.429688 16.828125 -30.445312 16.5625 -30.488281 C 13.890625 -30.859375 11.695312 -30.949219 9.644531 -30.722656 Z M 9.644531 -30.722656 "/></g></g></g><g fill="#478ee1" fill-opacity="1"><g transform="translate(7.882498, 100.462854)"><g><path d="M 1.628906 -6.371094 C 1.859375 -4.285156 1.851562 -3.691406 1.519531 -3.023438 C 1.039062 -2.003906 1.007812 -1.929688 1.066406 -1.414062 C 1.171875 -0.464844 1.78125 0.0234375 2.734375 -0.0820312 C 3.0625 -0.117188 3.535156 -0.207031 4.152344 -0.3125 C 5.171875 -0.5 6.738281 -0.746094 8.164062 -0.90625 C 9.8125 -1.085938 11.324219 -1.179688 12.324219 -1.179688 C 12.839844 -1.199219 13.320312 -1.214844 13.578125 -1.246094 C 14.457031 -1.34375 14.941406 -1.988281 14.839844 -2.90625 C 14.78125 -3.417969 14.738281 -3.488281 14.042969 -4.410156 C 13.609375 -4.957031 13.433594 -5.566406 13.277344 -6.957031 C 13.183594 -7.800781 13.445312 -8.125 14.214844 -8.210938 C 14.46875 -8.238281 14.761719 -8.269531 15.097656 -8.269531 C 15.796875 -8.3125 16.308594 -8.367188 16.636719 -8.40625 C 23.777344 -9.195312 27.832031 -14.09375 27.066406 -21.015625 C 26.65625 -24.710938 24.675781 -27.867188 21.886719 -29.296875 C 19.40625 -30.582031 16.363281 -30.949219 12.226562 -30.488281 C 11.457031 -30.402344 10.289062 -30.238281 8.832031 -30.003906 C 6.429688 -29.625 5.554688 -29.492188 4.492188 -29.371094 C 3.320312 -29.242188 2.695312 -29.210938 1.25 -29.199219 C 0.621094 -29.167969 0.03125 -29.136719 -0.371094 -29.09375 C -1.429688 -28.976562 -1.921875 -28.367188 -1.808594 -27.378906 C -1.753906 -26.863281 -1.707031 -26.796875 -1.011719 -25.871094 C -0.542969 -25.292969 -0.402344 -24.714844 -0.171875 -22.628906 Z M 10.855469 -20.773438 C 10.726562 -21.945312 10.921875 -22.191406 12.242188 -22.335938 C 14.765625 -22.617188 16.042969 -21.792969 16.277344 -19.707031 C 16.519531 -17.511719 15.394531 -16.273438 12.871094 -15.992188 C 11.769531 -15.871094 11.375 -16.085938 11.285156 -16.894531 Z M 10.855469 -20.773438 "/></g></g></g><g fill="#478ee1" fill-opacity="1"><g transform="translate(37.139409, 97.220885)"><g><path d="M 16.386719 -7.339844 C 18.214844 -7.542969 18.921875 -7.210938 19.054688 -6.003906 C 19.109375 -5.492188 19.058594 -5.300781 18.652344 -4.625 C 18.402344 -4.1875 18.328125 -3.847656 18.371094 -3.480469 C 18.480469 -2.492188 19.210938 -1.90625 20.128906 -2.007812 C 20.421875 -2.039062 20.890625 -2.128906 21.4375 -2.226562 C 22.308594 -2.398438 24.019531 -2.660156 25.265625 -2.800781 C 26.472656 -2.933594 28.714844 -3.109375 29.714844 -3.144531 C 30.414062 -3.183594 31.039062 -3.21875 31.367188 -3.253906 C 32.246094 -3.351562 32.699219 -3.957031 32.59375 -4.910156 C 32.542969 -5.386719 32.402344 -5.628906 31.894531 -6.203125 C 30.960938 -7.285156 30.863281 -7.496094 29.972656 -10.179688 C 28.695312 -14.003906 25.257812 -21.925781 23.148438 -25.917969 C 20.792969 -30.4375 20.027344 -31.355469 18.816406 -31.21875 C 18.523438 -31.1875 18.089844 -31.101562 17.582031 -31.007812 C 16.675781 -30.796875 15.222656 -30.5625 13.648438 -30.386719 C 11.632812 -30.164062 9.539062 -30.007812 8.757812 -30.03125 C 8.347656 -30.023438 7.90625 -30.011719 7.722656 -29.992188 C 6.585938 -29.863281 6.085938 -29.03125 4.988281 -25.574219 C 3.492188 -20.996094 1.824219 -12.988281 1.148438 -7.355469 C 0.921875 -5.402344 0.796875 -4.5 0.742188 -4.34375 C 0.566406 -3.585938 0.570312 -3.546875 -0.0390625 -2.703125 C -0.386719 -2.144531 -0.527344 -1.757812 -0.476562 -1.28125 C -0.375 -0.367188 0.28125 0.191406 1.195312 0.0898438 C 1.453125 0.0625 1.925781 -0.0273438 2.46875 -0.125 C 3.265625 -0.289062 5.164062 -0.570312 6.335938 -0.703125 C 7.398438 -0.820312 8.425781 -0.898438 9.242188 -0.875 C 9.6875 -0.886719 10.09375 -0.894531 10.351562 -0.925781 C 11.046875 -1 11.523438 -1.722656 11.425781 -2.601562 C 11.359375 -3.1875 11.261719 -3.398438 10.757812 -3.933594 C 10.417969 -4.34375 10.273438 -4.621094 10.230469 -5.027344 C 10.109375 -6.125 10.710938 -6.710938 12.210938 -6.875 Z M 12.773438 -14.5 C 11.566406 -14.367188 11.097656 -14.574219 11.015625 -15.34375 C 10.925781 -16.148438 11.289062 -18.226562 11.898438 -20.40625 C 12.324219 -21.902344 12.542969 -22.296875 12.980469 -22.34375 C 13.382812 -22.390625 13.511719 -22.253906 14.511719 -20.253906 C 15.269531 -18.742188 16.015625 -16.710938 16.097656 -15.945312 C 16.179688 -15.210938 15.742188 -14.828125 14.753906 -14.71875 Z M 12.773438 -14.5 "/></g></g></g><g fill="#478ee1" fill-opacity="1"><g transform="translate(69.472136, 93.638083)"><g><path d="M 1.59375 -6.367188 C 1.820312 -4.316406 1.820312 -3.648438 1.519531 -3.023438 C 0.976562 -1.886719 0.976562 -1.886719 1.046875 -1.265625 C 1.136719 -0.460938 1.78125 0.0234375 2.625 -0.0703125 C 2.917969 -0.101562 3.390625 -0.191406 3.824219 -0.277344 C 4.835938 -0.5 5.382812 -0.597656 6.078125 -0.671875 C 6.882812 -0.761719 8.355469 -0.851562 9.246094 -0.839844 C 9.800781 -0.863281 10.355469 -0.886719 10.609375 -0.917969 C 11.527344 -1.019531 12.050781 -1.632812 11.964844 -2.402344 C 11.917969 -2.839844 11.804688 -3.199219 11.632812 -3.402344 C 10.589844 -4.769531 10.589844 -4.769531 10.308594 -7.332031 L 10 -10.117188 C 9.980469 -10.296875 9.945312 -10.589844 9.941406 -10.960938 L 9.855469 -11.730469 C 9.828125 -11.988281 9.804688 -12.207031 9.742188 -12.421875 C 9.679688 -12.675781 9.617188 -12.890625 9.609375 -12.964844 C 9.578125 -13.257812 9.707031 -13.417969 10 -13.453125 C 10.367188 -13.492188 10.609375 -13.296875 11.171875 -12.582031 L 17.957031 -3.546875 C 18.828125 -2.347656 19.46875 -1.933594 20.238281 -2.019531 C 20.457031 -2.042969 20.890625 -2.128906 21.363281 -2.21875 C 21.800781 -2.304688 24.496094 -2.714844 25.191406 -2.792969 C 25.886719 -2.867188 27.433594 -2.964844 28.429688 -3.003906 C 29.09375 -3.039062 29.683594 -3.066406 30.050781 -3.109375 C 31.003906 -3.214844 31.53125 -3.789062 31.4375 -4.632812 C 31.394531 -5.035156 31.285156 -5.355469 31.109375 -5.597656 L 30.59375 -6.242188 C 30.414062 -6.519531 30.277344 -6.765625 30.164062 -7.085938 C 30.050781 -7.445312 30.042969 -7.519531 29.789062 -9.492188 L 27.988281 -25.75 C 27.757812 -27.800781 27.757812 -28.46875 28.054688 -29.128906 C 28.597656 -30.265625 28.597656 -30.265625 28.527344 -30.886719 C 28.441406 -31.691406 27.789062 -32.214844 26.945312 -32.121094 C 26.726562 -32.097656 26.253906 -32.007812 25.746094 -31.914062 C 25.132812 -31.769531 23.351562 -31.460938 22.835938 -31.40625 C 22.214844 -31.335938 20.1875 -31.222656 19.671875 -31.203125 C 18.890625 -31.226562 18.855469 -31.222656 18.707031 -31.207031 C 17.9375 -31.121094 17.417969 -30.472656 17.507812 -29.667969 C 17.550781 -29.261719 17.664062 -28.90625 17.835938 -28.703125 C 18.742188 -27.542969 18.792969 -27.4375 18.941406 -26.414062 L 19.160156 -24.769531 L 19.425781 -22.390625 C 19.523438 -21.179688 19.523438 -21.179688 19.554688 -20.886719 C 19.609375 -20.410156 19.652344 -20.007812 19.710938 -19.828125 C 19.78125 -19.503906 19.851562 -19.214844 19.863281 -19.105469 C 19.886719 -18.882812 19.761719 -18.683594 19.503906 -18.65625 C 19.175781 -18.621094 18.855469 -18.84375 18.378906 -19.457031 L 11.386719 -28.691406 C 10.480469 -29.851562 9.957031 -30.238281 9.296875 -30.164062 C 9.113281 -30.144531 8.753906 -30.066406 8.320312 -29.945312 C 7.78125 -29.8125 6.285156 -29.570312 5.222656 -29.453125 C 4.457031 -29.367188 2.359375 -29.210938 1.070312 -29.140625 C -0.109375 -29.085938 -0.441406 -29.085938 -0.664062 -29.0625 C -1.542969 -28.964844 -1.964844 -28.433594 -1.867188 -27.554688 C -1.820312 -27.117188 -1.703125 -26.757812 -1.535156 -26.554688 C -0.535156 -25.21875 -0.488281 -25.152344 -0.207031 -22.625 Z M 1.59375 -6.367188 "/></g></g></g><g fill="#478ee1" fill-opacity="1"><g transform="translate(102.244266, 90.00659)"><g><path d="M 23.566406 -17.808594 C 24.921875 -17.957031 25.101562 -18.015625 25.519531 -18.246094 C 25.96875 -18.519531 26.171875 -19.0625 26.101562 -19.683594 C 26.0625 -20.011719 25.980469 -20.449219 25.894531 -20.882812 C 25.464844 -22.761719 25.230469 -24.183594 25.082031 -25.539062 C 25.050781 -25.832031 25.019531 -26.085938 25.03125 -26.3125 C 24.972656 -27.195312 24.925781 -27.929688 24.910156 -28.078125 C 24.792969 -29.140625 24.140625 -29.695312 22.183594 -30.296875 C 19.535156 -31.113281 15.863281 -31.449219 12.972656 -31.128906 C 8.90625 -30.675781 5.164062 -29.003906 2.703125 -26.46875 C -0.164062 -23.554688 -1.34375 -19.496094 -0.785156 -14.441406 C 0.316406 -4.519531 6.570312 0.0859375 17.261719 -1.097656 C 20.59375 -1.464844 24.117188 -2.449219 25.710938 -3.480469 C 26.542969 -3.980469 26.746094 -4.484375 26.746094 -6.152344 C 26.773438 -7.933594 26.9375 -9.136719 27.394531 -11.339844 C 27.546875 -11.984375 27.589844 -12.621094 27.542969 -13.023438 C 27.464844 -13.71875 26.820312 -14.203125 26.125 -14.125 C 25.902344 -14.101562 25.613281 -14.03125 25.292969 -13.921875 C 22.074219 -12.863281 19.910156 -12.324219 18.078125 -12.121094 C 13.355469 -11.597656 11.285156 -12.890625 10.875 -16.589844 C 10.539062 -19.628906 11.488281 -21.4375 13.574219 -21.667969 C 15.148438 -21.84375 16.050781 -21.054688 16.242188 -19.332031 C 16.429688 -17.316406 16.828125 -17.0625 19.097656 -17.3125 Z M 23.566406 -17.808594 "/></g></g></g><g fill="#478ee1" fill-opacity="1"><g transform="translate(131.647641, 86.748391)"><g><path d="M 1.628906 -6.371094 C 1.859375 -4.285156 1.851562 -3.691406 1.519531 -3.023438 C 1.039062 -2.003906 1.007812 -1.929688 1.066406 -1.414062 C 1.167969 -0.5 1.820312 0.0195312 2.734375 -0.0820312 C 3.027344 -0.113281 3.570312 -0.210938 4.152344 -0.3125 C 5.0625 -0.488281 6.699219 -0.742188 7.726562 -0.855469 C 8.933594 -0.988281 10.738281 -1.117188 11.554688 -1.09375 C 12.109375 -1.121094 12.589844 -1.136719 12.808594 -1.160156 C 13.648438 -1.253906 14.167969 -1.941406 14.070312 -2.820312 C 14.011719 -3.332031 13.964844 -3.4375 13.273438 -4.324219 C 12.800781 -4.902344 12.667969 -5.445312 12.429688 -7.566406 L 12.257812 -9.140625 C 12.023438 -11.265625 12.238281 -11.660156 13.664062 -11.820312 L 15.167969 -11.984375 C 16.523438 -12.136719 16.824219 -11.761719 17.058594 -9.636719 L 17.226562 -8.097656 L 17.300781 -7.105469 L 17.40625 -6.15625 C 17.433594 -5.566406 17.363281 -5.222656 17.117188 -4.75 C 16.605469 -3.691406 16.609375 -3.65625 16.667969 -3.109375 C 16.761719 -2.265625 17.421875 -1.671875 18.191406 -1.757812 C 18.335938 -1.773438 18.335938 -1.773438 19.058594 -1.964844 C 19.671875 -2.105469 21.640625 -2.398438 22.960938 -2.542969 C 24.277344 -2.691406 26.410156 -2.851562 27.191406 -2.828125 C 27.707031 -2.847656 28.1875 -2.863281 28.40625 -2.886719 C 29.25 -2.980469 29.765625 -3.667969 29.667969 -4.546875 C 29.613281 -5.058594 29.558594 -5.203125 28.871094 -6.054688 C 28.398438 -6.632812 28.269531 -7.136719 28.03125 -9.296875 L 26.230469 -25.554688 C 25.980469 -27.789062 26.011719 -28.199219 26.304688 -28.898438 C 26.753906 -29.839844 26.804688 -30.066406 26.746094 -30.578125 C 26.648438 -31.457031 25.996094 -32.015625 25.152344 -31.921875 C 24.859375 -31.890625 24.242188 -31.785156 23.621094 -31.679688 C 22.574219 -31.449219 21.117188 -31.214844 20.089844 -31.101562 C 19.027344 -30.984375 17.375 -30.875 16.445312 -30.882812 C 15.890625 -30.859375 15.375 -30.839844 15.082031 -30.804688 C 14.203125 -30.707031 13.683594 -30.058594 13.78125 -29.179688 C 13.847656 -28.554688 13.890625 -28.523438 14.585938 -27.601562 C 15.015625 -27.054688 15.117188 -26.808594 15.242188 -25.671875 L 15.425781 -24.355469 L 15.566406 -23.113281 C 15.800781 -20.988281 15.613281 -20.671875 14.074219 -20.5 L 12.71875 -20.351562 C 11.183594 -20.179688 11.011719 -20.382812 10.78125 -22.472656 L 10.628906 -23.824219 C 10.394531 -25.949219 10.40625 -26.507812 10.742188 -27.175781 C 11.222656 -28.191406 11.246094 -28.304688 11.1875 -28.816406 C 11.085938 -29.734375 10.433594 -30.289062 9.554688 -30.191406 C 9.222656 -30.15625 8.679688 -30.058594 8.097656 -29.957031 C 7.046875 -29.730469 5.664062 -29.503906 4.417969 -29.363281 C 3.320312 -29.242188 2.65625 -29.207031 1.25 -29.199219 C 0.621094 -29.167969 -0.00390625 -29.132812 -0.40625 -29.089844 C -1.394531 -28.980469 -1.921875 -28.367188 -1.808594 -27.378906 C -1.75 -26.828125 -1.707031 -26.796875 -1.011719 -25.871094 C -0.542969 -25.292969 -0.402344 -24.714844 -0.171875 -22.628906 Z M 1.628906 -6.371094 "/></g></g></g><g fill="#478ee1" fill-opacity="1"><g transform="translate(162.662159, 83.31166)"><g><path d="M 12.824219 -31.113281 C 8.722656 -30.65625 5.296875 -29.128906 2.898438 -26.710938 C 0.0976562 -23.882812 -1.300781 -19.09375 -0.75 -14.113281 C 0.253906 -5.070312 6.789062 0.0625 16.019531 -0.960938 C 25.5 -2.011719 30.648438 -8.402344 29.601562 -17.847656 C 29.074219 -22.609375 27.015625 -26.492188 23.878906 -28.703125 C 21.035156 -30.613281 16.851562 -31.558594 12.824219 -31.113281 Z M 13.6875 -21.976562 C 15.738281 -22.203125 17.019531 -20.34375 17.449219 -16.464844 C 17.863281 -12.730469 16.988281 -10.59375 15.011719 -10.375 C 12.960938 -10.148438 11.800781 -11.910156 11.363281 -15.863281 C 10.933594 -19.746094 11.675781 -21.753906 13.6875 -21.976562 Z M 13.6875 -21.976562 "/></g></g></g><g fill="#478ee1" fill-opacity="1"><g transform="translate(194.665329, 79.765377)"><g><path d="M 9.644531 -30.722656 C 2.394531 -29.917969 -1.695312 -25.683594 -1.03125 -19.679688 C -0.558594 -15.394531 1.921875 -13.113281 6.941406 -12.296875 C 9.355469 -11.898438 10.230469 -11.363281 10.355469 -10.230469 C 10.472656 -9.203125 9.84375 -8.503906 8.671875 -8.375 C 7.390625 -8.230469 5.503906 -8.542969 3.957031 -9.113281 C 0.667969 -10.378906 0.667969 -10.378906 0.226562 -10.328125 C -0.433594 -10.257812 -0.949219 -9.570312 -0.871094 -8.875 C -0.839844 -8.582031 -0.71875 -8.148438 -0.515625 -7.652344 C 0.179688 -6.0625 0.667969 -4.335938 0.847656 -2.726562 C 1.023438 -1.152344 1.136719 -0.792969 1.542969 -0.46875 C 1.832031 -0.203125 2.441406 -0.046875 2.953125 -0.105469 C 3.320312 -0.144531 3.675781 -0.296875 4.015625 -0.554688 C 4.566406 -0.949219 4.671875 -1 4.855469 -1.019531 C 5.035156 -1.039062 5.261719 -1.027344 5.5625 -0.988281 C 8.015625 -0.589844 11.585938 -0.46875 13.601562 -0.691406 C 15.980469 -0.957031 18.800781 -1.933594 20.769531 -3.226562 C 23.578125 -4.984375 25.035156 -8.222656 24.644531 -11.738281 C 24.433594 -13.640625 23.785156 -15.164062 22.652344 -16.335938 C 21.269531 -17.777344 19.378906 -18.457031 15.4375 -18.910156 C 13.296875 -19.15625 12.460938 -19.691406 12.332031 -20.828125 C 12.214844 -21.890625 12.847656 -22.550781 14.054688 -22.6875 C 15.300781 -22.824219 17.140625 -22.621094 18.777344 -22.207031 C 20.691406 -21.679688 20.953125 -21.632812 21.394531 -21.683594 C 22.015625 -21.75 22.503906 -22.363281 22.4375 -22.984375 C 22.40625 -23.242188 22.25 -23.667969 22.007812 -24.160156 C 21.480469 -25.25 20.984375 -27.050781 20.828125 -28.476562 C 20.796875 -28.734375 20.773438 -28.953125 20.789062 -29.140625 C 20.792969 -29.4375 20.769531 -29.65625 20.753906 -29.804688 C 20.660156 -30.644531 19.78125 -31.214844 18.71875 -31.097656 C 18.425781 -31.066406 18.179688 -30.964844 17.867188 -30.78125 C 17.488281 -30.515625 17.382812 -30.46875 17.234375 -30.453125 C 17.050781 -30.429688 16.828125 -30.445312 16.5625 -30.488281 C 13.890625 -30.859375 11.695312 -30.949219 9.644531 -30.722656 Z M 9.644531 -30.722656 "/></g></g></g><g fill="#af724b" fill-opacity="0.4"><g transform="translate(80.707169, 109.325148)"><g><path d="M 15.59375 -22.1875 C 15.757812 -22.863281 15.90625 -23.210938 16.03125 -23.234375 L 16.078125 -23.25 C 16.210938 -23.269531 16.515625 -23.171875 16.984375 -22.953125 C 17.453125 -22.742188 17.707031 -22.507812 17.75 -22.25 C 17.8125 -21.90625 17.128906 -18.988281 15.703125 -13.5 C 14.285156 -8.007812 13.457031 -4.925781 13.21875 -4.25 C 12.988281 -3.582031 12.828125 -3.132812 12.734375 -2.90625 C 12.648438 -2.6875 12.519531 -2.425781 12.34375 -2.125 C 12.039062 -1.59375 11.601562 -1.273438 11.03125 -1.171875 C 10.789062 -1.140625 10.585938 -1.078125 10.421875 -0.984375 C 10.253906 -0.890625 10.148438 -0.835938 10.109375 -0.828125 C 9.816406 -0.773438 9.660156 -0.816406 9.640625 -0.953125 C 9.628906 -0.984375 9.644531 -1.101562 9.6875 -1.3125 C 9.738281 -1.519531 10.390625 -3.882812 11.640625 -8.40625 C 9.515625 -8.113281 7.644531 -7.851562 6.03125 -7.625 C 4.832031 -5.414062 3.789062 -3.148438 2.90625 -0.828125 C 2.800781 -0.492188 2.691406 -0.253906 2.578125 -0.109375 C 2.460938 0.0234375 2.285156 0.113281 2.046875 0.15625 C 1.804688 0.195312 1.535156 0.125 1.234375 -0.0625 C 0.929688 -0.257812 0.75 -0.515625 0.6875 -0.828125 C 0.539062 -1.722656 1.375 -3.847656 3.1875 -7.203125 C 2.09375 -7.015625 1.398438 -6.867188 1.109375 -6.765625 C 0.828125 -6.671875 0.644531 -6.613281 0.5625 -6.59375 C 0.320312 -6.550781 0.164062 -6.734375 0.09375 -7.140625 C 0.03125 -7.546875 0.207031 -7.945312 0.625 -8.34375 C 1.050781 -8.738281 1.671875 -9.007812 2.484375 -9.15625 C 2.546875 -9.164062 2.660156 -9.1875 2.828125 -9.21875 C 3.378906 -9.34375 3.945312 -9.460938 4.53125 -9.578125 C 6.09375 -12.234375 7.773438 -14.726562 9.578125 -17.0625 C 11.378906 -19.40625 12.992188 -21.109375 14.421875 -22.171875 C 14.660156 -22.335938 14.851562 -22.429688 15 -22.453125 C 15.144531 -22.472656 15.34375 -22.382812 15.59375 -22.1875 Z M 14.984375 -20.140625 C 12.128906 -17.078125 9.617188 -13.726562 7.453125 -10.09375 C 9.035156 -10.332031 10.65625 -10.539062 12.3125 -10.71875 C 13.351562 -14.445312 14.242188 -17.585938 14.984375 -20.140625 Z M 14.984375 -20.140625 "/></g></g></g><g fill="#af724b" fill-opacity="0.4"><g transform="translate(96.951175, 106.519485)"><g><path d="M 11.53125 -6.359375 C 11.707031 -6.390625 11.835938 -6.28125 11.921875 -6.03125 C 12.003906 -5.78125 12.066406 -5.515625 12.109375 -5.234375 C 12.160156 -4.953125 12.171875 -4.753906 12.140625 -4.640625 C 11.953125 -4.066406 11.476562 -3.34375 10.71875 -2.46875 C 9.96875 -1.59375 9.195312 -1.085938 8.40625 -0.953125 C 7.925781 -0.867188 7.453125 -0.9375 6.984375 -1.15625 C 6.523438 -1.382812 6.226562 -1.863281 6.09375 -2.59375 C 5.96875 -3.320312 6.039062 -4.078125 6.3125 -4.859375 C 4.5625 -1.671875 3.050781 0.03125 1.78125 0.25 C 1.28125 0.34375 0.84375 0.238281 0.46875 -0.0625 C 0.09375 -0.375 -0.125 -0.71875 -0.1875 -1.09375 C -0.257812 -1.476562 -0.273438 -1.882812 -0.234375 -2.3125 C -0.191406 -2.75 -0.140625 -3.140625 -0.078125 -3.484375 C -0.015625 -3.828125 0.09375 -4.253906 0.25 -4.765625 C 0.40625 -5.285156 0.519531 -5.660156 0.59375 -5.890625 C 0.675781 -6.128906 0.8125 -6.488281 1 -6.96875 C 1.1875 -7.457031 1.421875 -8.109375 1.703125 -8.921875 C 1.992188 -9.734375 2.242188 -10.335938 2.453125 -10.734375 C 2.671875 -11.140625 2.910156 -11.367188 3.171875 -11.421875 C 3.429688 -11.472656 3.675781 -11.40625 3.90625 -11.21875 C 4.132812 -11.039062 4.257812 -10.878906 4.28125 -10.734375 C 4.3125 -10.597656 4.125 -9.941406 3.71875 -8.765625 C 2.488281 -5.234375 1.921875 -3.203125 2.015625 -2.671875 C 2.035156 -2.535156 2.097656 -2.472656 2.203125 -2.484375 C 2.628906 -2.554688 3.539062 -3.675781 4.9375 -5.84375 C 6.332031 -8.019531 7.117188 -9.394531 7.296875 -9.96875 C 7.472656 -10.539062 7.660156 -11.03125 7.859375 -11.4375 C 8.054688 -11.84375 8.207031 -12.097656 8.3125 -12.203125 C 8.65625 -12.515625 9.132812 -12.734375 9.75 -12.859375 C 9.851562 -12.878906 9.929688 -12.890625 9.984375 -12.890625 C 10.035156 -12.890625 10.109375 -12.820312 10.203125 -12.6875 C 10.296875 -12.550781 10.347656 -12.441406 10.359375 -12.359375 C 10.335938 -12.109375 10.101562 -11.382812 9.65625 -10.1875 C 9.207031 -8.988281 8.957031 -8.3125 8.90625 -8.15625 C 8.21875 -5.769531 7.9375 -4.242188 8.0625 -3.578125 C 8.125 -3.203125 8.300781 -3.039062 8.59375 -3.09375 C 9.101562 -3.25 9.660156 -3.769531 10.265625 -4.65625 C 10.472656 -4.988281 10.6875 -5.320312 10.90625 -5.65625 C 11.132812 -5.988281 11.269531 -6.179688 11.3125 -6.234375 C 11.363281 -6.296875 11.4375 -6.335938 11.53125 -6.359375 Z M 11.53125 -6.359375 "/></g></g></g><g fill="#af724b" fill-opacity="0.4"><g transform="translate(107.888536, 104.630386)"><g><path d="M 7.125 -19.140625 L 7.703125 -19.109375 C 7.785156 -19.117188 7.863281 -19.085938 7.9375 -19.015625 C 8.019531 -18.953125 8.066406 -18.882812 8.078125 -18.8125 C 8.085938 -18.738281 8.023438 -18.523438 7.890625 -18.171875 C 7.753906 -17.828125 7.59375 -17.429688 7.40625 -16.984375 C 7.21875 -16.535156 7.117188 -16.289062 7.109375 -16.25 C 7.804688 -16.425781 8.300781 -16.539062 8.59375 -16.59375 C 8.882812 -16.644531 9.085938 -16.65625 9.203125 -16.625 C 9.316406 -16.601562 9.457031 -16.515625 9.625 -16.359375 C 9.789062 -16.203125 9.941406 -16.085938 10.078125 -16.015625 C 10.210938 -15.941406 10.296875 -15.8125 10.328125 -15.625 C 10.367188 -15.4375 10.285156 -15.253906 10.078125 -15.078125 C 9.867188 -14.910156 9.632812 -14.789062 9.375 -14.71875 C 7.320312 -14.144531 6.1875 -13.835938 5.96875 -13.796875 C 5.4375 -12.554688 4.71875 -10.640625 3.8125 -8.046875 C 2.914062 -5.460938 2.476562 -3.863281 2.5 -3.25 C 2.5 -2.976562 2.515625 -2.753906 2.546875 -2.578125 C 2.609375 -2.234375 2.820312 -2.09375 3.1875 -2.15625 C 3.5625 -2.21875 3.945312 -2.425781 4.34375 -2.78125 C 4.75 -3.144531 5.113281 -3.53125 5.4375 -3.9375 C 6.289062 -5 6.753906 -5.539062 6.828125 -5.5625 C 7.054688 -5.59375 7.238281 -5.203125 7.375 -4.390625 C 7.457031 -3.953125 7.328125 -3.523438 6.984375 -3.109375 C 6.210938 -2.171875 5.550781 -1.445312 5 -0.9375 C 4.445312 -0.4375 3.859375 -0.132812 3.234375 -0.03125 C 3.097656 -0.0078125 2.96875 0 2.84375 0 C 2.101562 -0.0078125 1.53125 -0.179688 1.125 -0.515625 C 0.71875 -0.847656 0.457031 -1.347656 0.34375 -2.015625 C 0.238281 -2.691406 0.296875 -3.539062 0.515625 -4.5625 C 0.742188 -5.582031 1.066406 -6.671875 1.484375 -7.828125 C 2.160156 -9.753906 2.847656 -11.5625 3.546875 -13.25 L 3.046875 -13.09375 C 2.023438 -12.800781 1.429688 -12.640625 1.265625 -12.609375 L 1.140625 -12.59375 C 0.867188 -12.539062 0.601562 -12.546875 0.34375 -12.609375 C 0.09375 -12.671875 -0.0390625 -12.773438 -0.0625 -12.921875 C -0.09375 -13.078125 -0.0546875 -13.234375 0.046875 -13.390625 C 0.148438 -13.554688 0.207031 -13.6875 0.21875 -13.78125 C 0.25 -14 0.445312 -14.265625 0.8125 -14.578125 C 1.175781 -14.890625 1.460938 -15.066406 1.671875 -15.109375 C 1.878906 -15.160156 2.078125 -15.207031 2.265625 -15.25 C 2.453125 -15.289062 2.664062 -15.335938 2.90625 -15.390625 C 3.144531 -15.441406 3.328125 -15.484375 3.453125 -15.515625 L 4.65625 -15.765625 C 5.207031 -17.046875 5.597656 -17.867188 5.828125 -18.234375 C 6.066406 -18.609375 6.203125 -18.816406 6.234375 -18.859375 C 6.273438 -18.898438 6.363281 -18.929688 6.5 -18.953125 Z M 7.125 -19.140625 "/></g></g></g><g fill="#af724b" fill-opacity="0.4"><g transform="translate(113.829818, 103.604208)"><g><path d="M 8.21875 -12 C 8.488281 -12.050781 8.785156 -11.976562 9.109375 -11.78125 C 9.429688 -11.59375 9.632812 -11.25 9.71875 -10.75 C 9.8125 -10.25 9.75 -9.570312 9.53125 -8.71875 C 9.320312 -7.863281 8.984375 -6.972656 8.515625 -6.046875 C 8.054688 -5.117188 7.519531 -4.226562 6.90625 -3.375 C 6.300781 -2.519531 5.613281 -1.785156 4.84375 -1.171875 C 4.070312 -0.554688 3.335938 -0.1875 2.640625 -0.0625 C 1.953125 0.0507812 1.359375 -0.0703125 0.859375 -0.4375 C 0.367188 -0.800781 0.0546875 -1.375 -0.078125 -2.15625 C -0.210938 -2.9375 -0.171875 -3.832031 0.046875 -4.84375 C 0.265625 -5.851562 0.609375 -6.769531 1.078125 -7.59375 C 1.554688 -8.425781 2.101562 -9.191406 2.71875 -9.890625 C 3.976562 -11.328125 5.160156 -12.140625 6.265625 -12.328125 C 6.765625 -12.410156 7.15625 -12.351562 7.4375 -12.15625 C 7.550781 -12.09375 7.613281 -12.03125 7.625 -11.96875 L 7.640625 -11.875 C 7.765625 -11.914062 7.957031 -11.957031 8.21875 -12 Z M 7.171875 -9.984375 L 7.078125 -9.96875 C 6.753906 -9.914062 6.554688 -10.113281 6.484375 -10.5625 C 5.859375 -10.238281 5.234375 -9.742188 4.609375 -9.078125 C 3.984375 -8.410156 3.453125 -7.660156 3.015625 -6.828125 C 2.128906 -5.148438 1.765625 -3.804688 1.921875 -2.796875 C 2.003906 -2.285156 2.226562 -2.0625 2.59375 -2.125 C 2.96875 -2.1875 3.476562 -2.523438 4.125 -3.140625 C 4.769531 -3.753906 5.367188 -4.570312 5.921875 -5.59375 C 6.484375 -6.625 6.882812 -7.5 7.125 -8.21875 C 7.375 -8.945312 7.476562 -9.429688 7.4375 -9.671875 C 7.394531 -9.910156 7.304688 -10.015625 7.171875 -9.984375 Z M 7.171875 -9.984375 "/></g></g></g><g fill="#af724b" fill-opacity="0.4"><g transform="translate(123.957003, 101.855042)"><g><path d="M 8.625 -21.328125 C 7.207031 -18.148438 5.875 -14.847656 4.625 -11.421875 C 4.988281 -11.710938 5.421875 -11.945312 5.921875 -12.125 C 6.429688 -12.3125 6.789062 -12.421875 7 -12.453125 C 7.207031 -12.492188 7.390625 -12.519531 7.546875 -12.53125 C 7.710938 -12.550781 7.921875 -12.535156 8.171875 -12.484375 C 8.421875 -12.441406 8.644531 -12.359375 8.84375 -12.234375 C 9.3125 -11.929688 9.601562 -11.441406 9.71875 -10.765625 C 9.84375 -10.097656 9.789062 -9.328125 9.5625 -8.453125 C 9.332031 -7.585938 8.972656 -6.695312 8.484375 -5.78125 C 8.003906 -4.863281 7.453125 -3.988281 6.828125 -3.15625 C 6.210938 -2.332031 5.515625 -1.625 4.734375 -1.03125 C 3.960938 -0.445312 3.207031 -0.0859375 2.46875 0.046875 C 2.125 0.0976562 1.6875 -0.0546875 1.15625 -0.421875 C 0.632812 -0.785156 0.3125 -1.328125 0.1875 -2.046875 C 0.0625 -2.765625 0.179688 -3.9375 0.546875 -5.5625 C 0.910156 -7.1875 1.398438 -8.851562 2.015625 -10.5625 C 2.640625 -12.269531 3.285156 -13.945312 3.953125 -15.59375 C 4.617188 -17.25 5.191406 -18.601562 5.671875 -19.65625 C 6.160156 -20.707031 6.460938 -21.316406 6.578125 -21.484375 C 6.691406 -21.660156 6.929688 -21.832031 7.296875 -22 C 7.671875 -22.164062 7.992188 -22.269531 8.265625 -22.3125 C 8.546875 -22.351562 8.707031 -22.25 8.75 -22 C 8.78125 -21.832031 8.738281 -21.609375 8.625 -21.328125 Z M 7.203125 -7.75 C 7.460938 -8.457031 7.546875 -9.078125 7.453125 -9.609375 C 7.367188 -10.140625 7.160156 -10.375 6.828125 -10.3125 C 6.492188 -10.257812 6.003906 -10.023438 5.359375 -9.609375 C 4.710938 -9.191406 4.335938 -8.972656 4.234375 -8.953125 C 4.128906 -8.929688 3.984375 -8.992188 3.796875 -9.140625 C 2.578125 -5.671875 2.046875 -3.5 2.203125 -2.625 C 2.265625 -2.21875 2.425781 -2.039062 2.6875 -2.09375 C 3.300781 -2.195312 4.101562 -2.867188 5.09375 -4.109375 C 6.09375 -5.359375 6.796875 -6.570312 7.203125 -7.75 Z M 7.203125 -7.75 "/></g></g></g><g fill="#af724b" fill-opacity="0.4"><g transform="translate(134.259728, 100.075557)"><g><path d="M 11.53125 -6.359375 C 11.707031 -6.390625 11.835938 -6.28125 11.921875 -6.03125 C 12.003906 -5.78125 12.066406 -5.515625 12.109375 -5.234375 C 12.160156 -4.953125 12.171875 -4.753906 12.140625 -4.640625 C 11.953125 -4.066406 11.476562 -3.34375 10.71875 -2.46875 C 9.96875 -1.59375 9.195312 -1.085938 8.40625 -0.953125 C 7.925781 -0.867188 7.453125 -0.9375 6.984375 -1.15625 C 6.523438 -1.382812 6.226562 -1.863281 6.09375 -2.59375 C 5.96875 -3.320312 6.039062 -4.078125 6.3125 -4.859375 C 4.5625 -1.671875 3.050781 0.03125 1.78125 0.25 C 1.28125 0.34375 0.84375 0.238281 0.46875 -0.0625 C 0.09375 -0.375 -0.125 -0.71875 -0.1875 -1.09375 C -0.257812 -1.476562 -0.273438 -1.882812 -0.234375 -2.3125 C -0.191406 -2.75 -0.140625 -3.140625 -0.078125 -3.484375 C -0.015625 -3.828125 0.09375 -4.253906 0.25 -4.765625 C 0.40625 -5.285156 0.519531 -5.660156 0.59375 -5.890625 C 0.675781 -6.128906 0.8125 -6.488281 1 -6.96875 C 1.1875 -7.457031 1.421875 -8.109375 1.703125 -8.921875 C 1.992188 -9.734375 2.242188 -10.335938 2.453125 -10.734375 C 2.671875 -11.140625 2.910156 -11.367188 3.171875 -11.421875 C 3.429688 -11.472656 3.675781 -11.40625 3.90625 -11.21875 C 4.132812 -11.039062 4.257812 -10.878906 4.28125 -10.734375 C 4.3125 -10.597656 4.125 -9.941406 3.71875 -8.765625 C 2.488281 -5.234375 1.921875 -3.203125 2.015625 -2.671875 C 2.035156 -2.535156 2.097656 -2.472656 2.203125 -2.484375 C 2.628906 -2.554688 3.539062 -3.675781 4.9375 -5.84375 C 6.332031 -8.019531 7.117188 -9.394531 7.296875 -9.96875 C 7.472656 -10.539062 7.660156 -11.03125 7.859375 -11.4375 C 8.054688 -11.84375 8.207031 -12.097656 8.3125 -12.203125 C 8.65625 -12.515625 9.132812 -12.734375 9.75 -12.859375 C 9.851562 -12.878906 9.929688 -12.890625 9.984375 -12.890625 C 10.035156 -12.890625 10.109375 -12.820312 10.203125 -12.6875 C 10.296875 -12.550781 10.347656 -12.441406 10.359375 -12.359375 C 10.335938 -12.109375 10.101562 -11.382812 9.65625 -10.1875 C 9.207031 -8.988281 8.957031 -8.3125 8.90625 -8.15625 C 8.21875 -5.769531 7.9375 -4.242188 8.0625 -3.578125 C 8.125 -3.203125 8.300781 -3.039062 8.59375 -3.09375 C 9.101562 -3.25 9.660156 -3.769531 10.265625 -4.65625 C 10.472656 -4.988281 10.6875 -5.320312 10.90625 -5.65625 C 11.132812 -5.988281 11.269531 -6.179688 11.3125 -6.234375 C 11.363281 -6.296875 11.4375 -6.335938 11.53125 -6.359375 Z M 11.53125 -6.359375 "/></g></g></g><g fill="#af724b" fill-opacity="0.4"><g transform="translate(145.197086, 98.186458)"><g><path d="M 1.859375 -3.09375 L 1.890625 -2.890625 C 1.921875 -2.660156 2.035156 -2.476562 2.234375 -2.34375 C 2.429688 -2.207031 2.601562 -2.15625 2.75 -2.1875 C 3.84375 -2.375 4.773438 -2.703125 5.546875 -3.171875 C 6.316406 -3.640625 6.671875 -4.035156 6.609375 -4.359375 C 6.585938 -4.503906 6.414062 -4.609375 6.09375 -4.671875 C 5.769531 -4.734375 5.238281 -4.785156 4.5 -4.828125 C 3.757812 -4.867188 3.21875 -4.910156 2.875 -4.953125 C 2.53125 -4.992188 2.257812 -5.035156 2.0625 -5.078125 C 1.863281 -5.128906 1.648438 -5.207031 1.421875 -5.3125 C 0.941406 -5.539062 0.648438 -5.945312 0.546875 -6.53125 C 0.441406 -7.125 0.554688 -7.75 0.890625 -8.40625 C 1.234375 -9.070312 1.695312 -9.664062 2.28125 -10.1875 C 2.863281 -10.707031 3.507812 -11.191406 4.21875 -11.640625 C 5.601562 -12.523438 6.8125 -13.054688 7.84375 -13.234375 C 8.832031 -13.398438 9.484375 -13.289062 9.796875 -12.90625 C 9.890625 -12.757812 9.953125 -12.59375 9.984375 -12.40625 L 10 -12.296875 C 10.082031 -11.828125 10.039062 -11.4375 9.875 -11.125 C 9.71875 -10.820312 9.441406 -10.523438 9.046875 -10.234375 C 8.648438 -9.941406 8.320312 -9.769531 8.0625 -9.71875 C 7.800781 -9.675781 7.632812 -9.664062 7.5625 -9.6875 C 7.5 -9.71875 7.4375 -9.757812 7.375 -9.8125 C 7.320312 -9.875 7.257812 -9.910156 7.1875 -9.921875 C 7.113281 -9.929688 7.066406 -9.988281 7.046875 -10.09375 C 7.035156 -10.207031 7.066406 -10.328125 7.140625 -10.453125 C 7.210938 -10.585938 7.253906 -10.71875 7.265625 -10.84375 C 6.671875 -10.707031 6.070312 -10.460938 5.46875 -10.109375 C 4.863281 -9.753906 4.359375 -9.382812 3.953125 -9 C 3.546875 -8.613281 3.207031 -8.253906 2.9375 -7.921875 C 2.675781 -7.585938 2.554688 -7.351562 2.578125 -7.21875 C 2.597656 -7.09375 2.828125 -7.023438 3.265625 -7.015625 C 5.191406 -6.972656 6.472656 -6.863281 7.109375 -6.6875 C 7.742188 -6.507812 8.203125 -6.269531 8.484375 -5.96875 C 8.765625 -5.675781 8.929688 -5.394531 8.984375 -5.125 C 9.078125 -4.539062 8.9375 -3.953125 8.5625 -3.359375 C 8.1875 -2.765625 7.695312 -2.242188 7.09375 -1.796875 C 5.75 -0.835938 4.539062 -0.265625 3.46875 -0.078125 C 2.394531 0.0976562 1.625 0.0546875 1.15625 -0.203125 C 0.695312 -0.460938 0.425781 -0.8125 0.34375 -1.25 C 0.269531 -1.695312 0.316406 -2.132812 0.484375 -2.5625 C 0.648438 -2.988281 0.910156 -3.234375 1.265625 -3.296875 C 1.628906 -3.359375 1.828125 -3.289062 1.859375 -3.09375 Z M 1.859375 -3.09375 "/></g></g></g><g fill="#af724b" fill-opacity="0.4"><g transform="translate(155.364783, 96.430294)"><g><path d="M 8.375 -11.84375 C 8.476562 -11.25 8.328125 -10.6875 7.921875 -10.15625 C 7.523438 -9.625 7.019531 -9.304688 6.40625 -9.203125 C 6.207031 -9.171875 6.066406 -9.195312 5.984375 -9.28125 C 5.910156 -9.363281 5.859375 -9.484375 5.828125 -9.640625 C 5.804688 -9.796875 5.796875 -9.945312 5.796875 -10.09375 C 5.503906 -9.925781 5.175781 -9.691406 4.8125 -9.390625 C 4.457031 -9.085938 4.023438 -8.664062 3.515625 -8.125 C 3.015625 -7.59375 2.785156 -7.21875 2.828125 -7 C 2.835938 -6.925781 2.945312 -6.90625 3.15625 -6.9375 C 3.375 -6.976562 3.6875 -7.113281 4.09375 -7.34375 C 4.507812 -7.570312 4.804688 -7.703125 4.984375 -7.734375 C 5.171875 -7.765625 5.296875 -7.773438 5.359375 -7.765625 C 5.484375 -7.722656 5.628906 -7.601562 5.796875 -7.40625 C 5.972656 -7.21875 6.070312 -7.0625 6.09375 -6.9375 C 6.113281 -6.820312 6.019531 -6.644531 5.8125 -6.40625 C 5.613281 -6.164062 5.375 -5.972656 5.09375 -5.828125 C 4.820312 -5.679688 4.640625 -5.566406 4.546875 -5.484375 C 2.828125 -4.085938 2.003906 -3.191406 2.078125 -2.796875 C 2.191406 -2.097656 2.847656 -1.851562 4.046875 -2.0625 C 4.816406 -2.195312 5.546875 -2.570312 6.234375 -3.1875 C 6.816406 -3.71875 7.332031 -4.238281 7.78125 -4.75 C 8.238281 -5.269531 8.53125 -5.59375 8.65625 -5.71875 C 8.78125 -5.84375 8.878906 -5.910156 8.953125 -5.921875 C 9.179688 -5.960938 9.335938 -5.722656 9.421875 -5.203125 C 9.515625 -4.679688 9.546875 -4.332031 9.515625 -4.15625 C 9.484375 -3.976562 9.335938 -3.738281 9.078125 -3.4375 C 7.429688 -1.539062 5.742188 -0.441406 4.015625 -0.140625 C 3.109375 0.015625 2.351562 0.015625 1.75 -0.140625 C 0.664062 -0.421875 0.0390625 -1.035156 -0.125 -1.984375 C -0.332031 -3.222656 0.363281 -4.3125 1.96875 -5.25 C 1.601562 -5.34375 1.347656 -5.503906 1.203125 -5.734375 C 1.066406 -5.960938 0.953125 -6.335938 0.859375 -6.859375 C 0.765625 -7.378906 0.914062 -7.972656 1.3125 -8.640625 C 1.707031 -9.316406 2.222656 -9.910156 2.859375 -10.421875 C 4.285156 -11.546875 5.625 -12.21875 6.875 -12.4375 C 7.164062 -12.488281 7.476562 -12.46875 7.8125 -12.375 C 8.144531 -12.28125 8.332031 -12.101562 8.375 -11.84375 Z M 8.375 -11.84375 "/></g></g></g><g fill="#af724b" fill-opacity="0.4"><g transform="translate(164.141675, 94.914351)"><g><path d="M 1.859375 -3.09375 L 1.890625 -2.890625 C 1.921875 -2.660156 2.035156 -2.476562 2.234375 -2.34375 C 2.429688 -2.207031 2.601562 -2.15625 2.75 -2.1875 C 3.84375 -2.375 4.773438 -2.703125 5.546875 -3.171875 C 6.316406 -3.640625 6.671875 -4.035156 6.609375 -4.359375 C 6.585938 -4.503906 6.414062 -4.609375 6.09375 -4.671875 C 5.769531 -4.734375 5.238281 -4.785156 4.5 -4.828125 C 3.757812 -4.867188 3.21875 -4.910156 2.875 -4.953125 C 2.53125 -4.992188 2.257812 -5.035156 2.0625 -5.078125 C 1.863281 -5.128906 1.648438 -5.207031 1.421875 -5.3125 C 0.941406 -5.539062 0.648438 -5.945312 0.546875 -6.53125 C 0.441406 -7.125 0.554688 -7.75 0.890625 -8.40625 C 1.234375 -9.070312 1.695312 -9.664062 2.28125 -10.1875 C 2.863281 -10.707031 3.507812 -11.191406 4.21875 -11.640625 C 5.601562 -12.523438 6.8125 -13.054688 7.84375 -13.234375 C 8.832031 -13.398438 9.484375 -13.289062 9.796875 -12.90625 C 9.890625 -12.757812 9.953125 -12.59375 9.984375 -12.40625 L 10 -12.296875 C 10.082031 -11.828125 10.039062 -11.4375 9.875 -11.125 C 9.71875 -10.820312 9.441406 -10.523438 9.046875 -10.234375 C 8.648438 -9.941406 8.320312 -9.769531 8.0625 -9.71875 C 7.800781 -9.675781 7.632812 -9.664062 7.5625 -9.6875 C 7.5 -9.71875 7.4375 -9.757812 7.375 -9.8125 C 7.320312 -9.875 7.257812 -9.910156 7.1875 -9.921875 C 7.113281 -9.929688 7.066406 -9.988281 7.046875 -10.09375 C 7.035156 -10.207031 7.066406 -10.328125 7.140625 -10.453125 C 7.210938 -10.585938 7.253906 -10.71875 7.265625 -10.84375 C 6.671875 -10.707031 6.070312 -10.460938 5.46875 -10.109375 C 4.863281 -9.753906 4.359375 -9.382812 3.953125 -9 C 3.546875 -8.613281 3.207031 -8.253906 2.9375 -7.921875 C 2.675781 -7.585938 2.554688 -7.351562 2.578125 -7.21875 C 2.597656 -7.09375 2.828125 -7.023438 3.265625 -7.015625 C 5.191406 -6.972656 6.472656 -6.863281 7.109375 -6.6875 C 7.742188 -6.507812 8.203125 -6.269531 8.484375 -5.96875 C 8.765625 -5.675781 8.929688 -5.394531 8.984375 -5.125 C 9.078125 -4.539062 8.9375 -3.953125 8.5625 -3.359375 C 8.1875 -2.765625 7.695312 -2.242188 7.09375 -1.796875 C 5.75 -0.835938 4.539062 -0.265625 3.46875 -0.078125 C 2.394531 0.0976562 1.625 0.0546875 1.15625 -0.203125 C 0.695312 -0.460938 0.425781 -0.8125 0.34375 -1.25 C 0.269531 -1.695312 0.316406 -2.132812 0.484375 -2.5625 C 0.648438 -2.988281 0.910156 -3.234375 1.265625 -3.296875 C 1.628906 -3.359375 1.828125 -3.289062 1.859375 -3.09375 Z M 1.859375 -3.09375 "/></g></g></g><g fill="#e4712a" fill-opacity="1"><g transform="translate(79.2739, 108.314065)"><g><path d="M 15.59375 -22.1875 C 15.757812 -22.863281 15.90625 -23.210938 16.03125 -23.234375 L 16.078125 -23.25 C 16.210938 -23.269531 16.515625 -23.171875 16.984375 -22.953125 C 17.453125 -22.742188 17.707031 -22.507812 17.75 -22.25 C 17.8125 -21.90625 17.128906 -18.988281 15.703125 -13.5 C 14.285156 -8.007812 13.457031 -4.925781 13.21875 -4.25 C 12.988281 -3.582031 12.828125 -3.132812 12.734375 -2.90625 C 12.648438 -2.6875 12.519531 -2.425781 12.34375 -2.125 C 12.039062 -1.59375 11.601562 -1.273438 11.03125 -1.171875 C 10.789062 -1.140625 10.585938 -1.078125 10.421875 -0.984375 C 10.253906 -0.890625 10.148438 -0.835938 10.109375 -0.828125 C 9.816406 -0.773438 9.660156 -0.816406 9.640625 -0.953125 C 9.628906 -0.984375 9.644531 -1.101562 9.6875 -1.3125 C 9.738281 -1.519531 10.390625 -3.882812 11.640625 -8.40625 C 9.515625 -8.113281 7.644531 -7.851562 6.03125 -7.625 C 4.832031 -5.414062 3.789062 -3.148438 2.90625 -0.828125 C 2.800781 -0.492188 2.691406 -0.253906 2.578125 -0.109375 C 2.460938 0.0234375 2.285156 0.113281 2.046875 0.15625 C 1.804688 0.195312 1.535156 0.125 1.234375 -0.0625 C 0.929688 -0.257812 0.75 -0.515625 0.6875 -0.828125 C 0.539062 -1.722656 1.375 -3.847656 3.1875 -7.203125 C 2.09375 -7.015625 1.398438 -6.867188 1.109375 -6.765625 C 0.828125 -6.671875 0.644531 -6.613281 0.5625 -6.59375 C 0.320312 -6.550781 0.164062 -6.734375 0.09375 -7.140625 C 0.03125 -7.546875 0.207031 -7.945312 0.625 -8.34375 C 1.050781 -8.738281 1.671875 -9.007812 2.484375 -9.15625 C 2.546875 -9.164062 2.660156 -9.1875 2.828125 -9.21875 C 3.378906 -9.34375 3.945312 -9.460938 4.53125 -9.578125 C 6.09375 -12.234375 7.773438 -14.726562 9.578125 -17.0625 C 11.378906 -19.40625 12.992188 -21.109375 14.421875 -22.171875 C 14.660156 -22.335938 14.851562 -22.429688 15 -22.453125 C 15.144531 -22.472656 15.34375 -22.382812 15.59375 -22.1875 Z M 14.984375 -20.140625 C 12.128906 -17.078125 9.617188 -13.726562 7.453125 -10.09375 C 9.035156 -10.332031 10.65625 -10.539062 12.3125 -10.71875 C 13.351562 -14.445312 14.242188 -17.585938 14.984375 -20.140625 Z M 14.984375 -20.140625 "/></g></g></g><g fill="#e4712a" fill-opacity="1"><g transform="translate(95.517906, 105.508402)"><g><path d="M 11.53125 -6.359375 C 11.707031 -6.390625 11.835938 -6.28125 11.921875 -6.03125 C 12.003906 -5.78125 12.066406 -5.515625 12.109375 -5.234375 C 12.160156 -4.953125 12.171875 -4.753906 12.140625 -4.640625 C 11.953125 -4.066406 11.476562 -3.34375 10.71875 -2.46875 C 9.96875 -1.59375 9.195312 -1.085938 8.40625 -0.953125 C 7.925781 -0.867188 7.453125 -0.9375 6.984375 -1.15625 C 6.523438 -1.382812 6.226562 -1.863281 6.09375 -2.59375 C 5.96875 -3.320312 6.039062 -4.078125 6.3125 -4.859375 C 4.5625 -1.671875 3.050781 0.03125 1.78125 0.25 C 1.28125 0.34375 0.84375 0.238281 0.46875 -0.0625 C 0.09375 -0.375 -0.125 -0.71875 -0.1875 -1.09375 C -0.257812 -1.476562 -0.273438 -1.882812 -0.234375 -2.3125 C -0.191406 -2.75 -0.140625 -3.140625 -0.078125 -3.484375 C -0.015625 -3.828125 0.09375 -4.253906 0.25 -4.765625 C 0.40625 -5.285156 0.519531 -5.660156 0.59375 -5.890625 C 0.675781 -6.128906 0.8125 -6.488281 1 -6.96875 C 1.1875 -7.457031 1.421875 -8.109375 1.703125 -8.921875 C 1.992188 -9.734375 2.242188 -10.335938 2.453125 -10.734375 C 2.671875 -11.140625 2.910156 -11.367188 3.171875 -11.421875 C 3.429688 -11.472656 3.675781 -11.40625 3.90625 -11.21875 C 4.132812 -11.039062 4.257812 -10.878906 4.28125 -10.734375 C 4.3125 -10.597656 4.125 -9.941406 3.71875 -8.765625 C 2.488281 -5.234375 1.921875 -3.203125 2.015625 -2.671875 C 2.035156 -2.535156 2.097656 -2.472656 2.203125 -2.484375 C 2.628906 -2.554688 3.539062 -3.675781 4.9375 -5.84375 C 6.332031 -8.019531 7.117188 -9.394531 7.296875 -9.96875 C 7.472656 -10.539062 7.660156 -11.03125 7.859375 -11.4375 C 8.054688 -11.84375 8.207031 -12.097656 8.3125 -12.203125 C 8.65625 -12.515625 9.132812 -12.734375 9.75 -12.859375 C 9.851562 -12.878906 9.929688 -12.890625 9.984375 -12.890625 C 10.035156 -12.890625 10.109375 -12.820312 10.203125 -12.6875 C 10.296875 -12.550781 10.347656 -12.441406 10.359375 -12.359375 C 10.335938 -12.109375 10.101562 -11.382812 9.65625 -10.1875 C 9.207031 -8.988281 8.957031 -8.3125 8.90625 -8.15625 C 8.21875 -5.769531 7.9375 -4.242188 8.0625 -3.578125 C 8.125 -3.203125 8.300781 -3.039062 8.59375 -3.09375 C 9.101562 -3.25 9.660156 -3.769531 10.265625 -4.65625 C 10.472656 -4.988281 10.6875 -5.320312 10.90625 -5.65625 C 11.132812 -5.988281 11.269531 -6.179688 11.3125 -6.234375 C 11.363281 -6.296875 11.4375 -6.335938 11.53125 -6.359375 Z M 11.53125 -6.359375 "/></g></g></g><g fill="#e4712a" fill-opacity="1"><g transform="translate(106.455267, 103.619303)"><g><path d="M 7.125 -19.140625 L 7.703125 -19.109375 C 7.785156 -19.117188 7.863281 -19.085938 7.9375 -19.015625 C 8.019531 -18.953125 8.066406 -18.882812 8.078125 -18.8125 C 8.085938 -18.738281 8.023438 -18.523438 7.890625 -18.171875 C 7.753906 -17.828125 7.59375 -17.429688 7.40625 -16.984375 C 7.21875 -16.535156 7.117188 -16.289062 7.109375 -16.25 C 7.804688 -16.425781 8.300781 -16.539062 8.59375 -16.59375 C 8.882812 -16.644531 9.085938 -16.65625 9.203125 -16.625 C 9.316406 -16.601562 9.457031 -16.515625 9.625 -16.359375 C 9.789062 -16.203125 9.941406 -16.085938 10.078125 -16.015625 C 10.210938 -15.941406 10.296875 -15.8125 10.328125 -15.625 C 10.367188 -15.4375 10.285156 -15.253906 10.078125 -15.078125 C 9.867188 -14.910156 9.632812 -14.789062 9.375 -14.71875 C 7.320312 -14.144531 6.1875 -13.835938 5.96875 -13.796875 C 5.4375 -12.554688 4.71875 -10.640625 3.8125 -8.046875 C 2.914062 -5.460938 2.476562 -3.863281 2.5 -3.25 C 2.5 -2.976562 2.515625 -2.753906 2.546875 -2.578125 C 2.609375 -2.234375 2.820312 -2.09375 3.1875 -2.15625 C 3.5625 -2.21875 3.945312 -2.425781 4.34375 -2.78125 C 4.75 -3.144531 5.113281 -3.53125 5.4375 -3.9375 C 6.289062 -5 6.753906 -5.539062 6.828125 -5.5625 C 7.054688 -5.59375 7.238281 -5.203125 7.375 -4.390625 C 7.457031 -3.953125 7.328125 -3.523438 6.984375 -3.109375 C 6.210938 -2.171875 5.550781 -1.445312 5 -0.9375 C 4.445312 -0.4375 3.859375 -0.132812 3.234375 -0.03125 C 3.097656 -0.0078125 2.96875 0 2.84375 0 C 2.101562 -0.0078125 1.53125 -0.179688 1.125 -0.515625 C 0.71875 -0.847656 0.457031 -1.347656 0.34375 -2.015625 C 0.238281 -2.691406 0.296875 -3.539062 0.515625 -4.5625 C 0.742188 -5.582031 1.066406 -6.671875 1.484375 -7.828125 C 2.160156 -9.753906 2.847656 -11.5625 3.546875 -13.25 L 3.046875 -13.09375 C 2.023438 -12.800781 1.429688 -12.640625 1.265625 -12.609375 L 1.140625 -12.59375 C 0.867188 -12.539062 0.601562 -12.546875 0.34375 -12.609375 C 0.09375 -12.671875 -0.0390625 -12.773438 -0.0625 -12.921875 C -0.09375 -13.078125 -0.0546875 -13.234375 0.046875 -13.390625 C 0.148438 -13.554688 0.207031 -13.6875 0.21875 -13.78125 C 0.25 -14 0.445312 -14.265625 0.8125 -14.578125 C 1.175781 -14.890625 1.460938 -15.066406 1.671875 -15.109375 C 1.878906 -15.160156 2.078125 -15.207031 2.265625 -15.25 C 2.453125 -15.289062 2.664062 -15.335938 2.90625 -15.390625 C 3.144531 -15.441406 3.328125 -15.484375 3.453125 -15.515625 L 4.65625 -15.765625 C 5.207031 -17.046875 5.597656 -17.867188 5.828125 -18.234375 C 6.066406 -18.609375 6.203125 -18.816406 6.234375 -18.859375 C 6.273438 -18.898438 6.363281 -18.929688 6.5 -18.953125 Z M 7.125 -19.140625 "/></g></g></g><g fill="#e4712a" fill-opacity="1"><g transform="translate(112.396549, 102.593125)"><g><path d="M 8.21875 -12 C 8.488281 -12.050781 8.785156 -11.976562 9.109375 -11.78125 C 9.429688 -11.59375 9.632812 -11.25 9.71875 -10.75 C 9.8125 -10.25 9.75 -9.570312 9.53125 -8.71875 C 9.320312 -7.863281 8.984375 -6.972656 8.515625 -6.046875 C 8.054688 -5.117188 7.519531 -4.226562 6.90625 -3.375 C 6.300781 -2.519531 5.613281 -1.785156 4.84375 -1.171875 C 4.070312 -0.554688 3.335938 -0.1875 2.640625 -0.0625 C 1.953125 0.0507812 1.359375 -0.0703125 0.859375 -0.4375 C 0.367188 -0.800781 0.0546875 -1.375 -0.078125 -2.15625 C -0.210938 -2.9375 -0.171875 -3.832031 0.046875 -4.84375 C 0.265625 -5.851562 0.609375 -6.769531 1.078125 -7.59375 C 1.554688 -8.425781 2.101562 -9.191406 2.71875 -9.890625 C 3.976562 -11.328125 5.160156 -12.140625 6.265625 -12.328125 C 6.765625 -12.410156 7.15625 -12.351562 7.4375 -12.15625 C 7.550781 -12.09375 7.613281 -12.03125 7.625 -11.96875 L 7.640625 -11.875 C 7.765625 -11.914062 7.957031 -11.957031 8.21875 -12 Z M 7.171875 -9.984375 L 7.078125 -9.96875 C 6.753906 -9.914062 6.554688 -10.113281 6.484375 -10.5625 C 5.859375 -10.238281 5.234375 -9.742188 4.609375 -9.078125 C 3.984375 -8.410156 3.453125 -7.660156 3.015625 -6.828125 C 2.128906 -5.148438 1.765625 -3.804688 1.921875 -2.796875 C 2.003906 -2.285156 2.226562 -2.0625 2.59375 -2.125 C 2.96875 -2.1875 3.476562 -2.523438 4.125 -3.140625 C 4.769531 -3.753906 5.367188 -4.570312 5.921875 -5.59375 C 6.484375 -6.625 6.882812 -7.5 7.125 -8.21875 C 7.375 -8.945312 7.476562 -9.429688 7.4375 -9.671875 C 7.394531 -9.910156 7.304688 -10.015625 7.171875 -9.984375 Z M 7.171875 -9.984375 "/></g></g></g><g fill="#e4712a" fill-opacity="1"><g transform="translate(122.523734, 100.843959)"><g><path d="M 8.625 -21.328125 C 7.207031 -18.148438 5.875 -14.847656 4.625 -11.421875 C 4.988281 -11.710938 5.421875 -11.945312 5.921875 -12.125 C 6.429688 -12.3125 6.789062 -12.421875 7 -12.453125 C 7.207031 -12.492188 7.390625 -12.519531 7.546875 -12.53125 C 7.710938 -12.550781 7.921875 -12.535156 8.171875 -12.484375 C 8.421875 -12.441406 8.644531 -12.359375 8.84375 -12.234375 C 9.3125 -11.929688 9.601562 -11.441406 9.71875 -10.765625 C 9.84375 -10.097656 9.789062 -9.328125 9.5625 -8.453125 C 9.332031 -7.585938 8.972656 -6.695312 8.484375 -5.78125 C 8.003906 -4.863281 7.453125 -3.988281 6.828125 -3.15625 C 6.210938 -2.332031 5.515625 -1.625 4.734375 -1.03125 C 3.960938 -0.445312 3.207031 -0.0859375 2.46875 0.046875 C 2.125 0.0976562 1.6875 -0.0546875 1.15625 -0.421875 C 0.632812 -0.785156 0.3125 -1.328125 0.1875 -2.046875 C 0.0625 -2.765625 0.179688 -3.9375 0.546875 -5.5625 C 0.910156 -7.1875 1.398438 -8.851562 2.015625 -10.5625 C 2.640625 -12.269531 3.285156 -13.945312 3.953125 -15.59375 C 4.617188 -17.25 5.191406 -18.601562 5.671875 -19.65625 C 6.160156 -20.707031 6.460938 -21.316406 6.578125 -21.484375 C 6.691406 -21.660156 6.929688 -21.832031 7.296875 -22 C 7.671875 -22.164062 7.992188 -22.269531 8.265625 -22.3125 C 8.546875 -22.351562 8.707031 -22.25 8.75 -22 C 8.78125 -21.832031 8.738281 -21.609375 8.625 -21.328125 Z M 7.203125 -7.75 C 7.460938 -8.457031 7.546875 -9.078125 7.453125 -9.609375 C 7.367188 -10.140625 7.160156 -10.375 6.828125 -10.3125 C 6.492188 -10.257812 6.003906 -10.023438 5.359375 -9.609375 C 4.710938 -9.191406 4.335938 -8.972656 4.234375 -8.953125 C 4.128906 -8.929688 3.984375 -8.992188 3.796875 -9.140625 C 2.578125 -5.671875 2.046875 -3.5 2.203125 -2.625 C 2.265625 -2.21875 2.425781 -2.039062 2.6875 -2.09375 C 3.300781 -2.195312 4.101562 -2.867188 5.09375 -4.109375 C 6.09375 -5.359375 6.796875 -6.570312 7.203125 -7.75 Z M 7.203125 -7.75 "/></g></g></g><g fill="#e4712a" fill-opacity="1"><g transform="translate(132.826459, 99.064474)"><g><path d="M 11.53125 -6.359375 C 11.707031 -6.390625 11.835938 -6.28125 11.921875 -6.03125 C 12.003906 -5.78125 12.066406 -5.515625 12.109375 -5.234375 C 12.160156 -4.953125 12.171875 -4.753906 12.140625 -4.640625 C 11.953125 -4.066406 11.476562 -3.34375 10.71875 -2.46875 C 9.96875 -1.59375 9.195312 -1.085938 8.40625 -0.953125 C 7.925781 -0.867188 7.453125 -0.9375 6.984375 -1.15625 C 6.523438 -1.382812 6.226562 -1.863281 6.09375 -2.59375 C 5.96875 -3.320312 6.039062 -4.078125 6.3125 -4.859375 C 4.5625 -1.671875 3.050781 0.03125 1.78125 0.25 C 1.28125 0.34375 0.84375 0.238281 0.46875 -0.0625 C 0.09375 -0.375 -0.125 -0.71875 -0.1875 -1.09375 C -0.257812 -1.476562 -0.273438 -1.882812 -0.234375 -2.3125 C -0.191406 -2.75 -0.140625 -3.140625 -0.078125 -3.484375 C -0.015625 -3.828125 0.09375 -4.253906 0.25 -4.765625 C 0.40625 -5.285156 0.519531 -5.660156 0.59375 -5.890625 C 0.675781 -6.128906 0.8125 -6.488281 1 -6.96875 C 1.1875 -7.457031 1.421875 -8.109375 1.703125 -8.921875 C 1.992188 -9.734375 2.242188 -10.335938 2.453125 -10.734375 C 2.671875 -11.140625 2.910156 -11.367188 3.171875 -11.421875 C 3.429688 -11.472656 3.675781 -11.40625 3.90625 -11.21875 C 4.132812 -11.039062 4.257812 -10.878906 4.28125 -10.734375 C 4.3125 -10.597656 4.125 -9.941406 3.71875 -8.765625 C 2.488281 -5.234375 1.921875 -3.203125 2.015625 -2.671875 C 2.035156 -2.535156 2.097656 -2.472656 2.203125 -2.484375 C 2.628906 -2.554688 3.539062 -3.675781 4.9375 -5.84375 C 6.332031 -8.019531 7.117188 -9.394531 7.296875 -9.96875 C 7.472656 -10.539062 7.660156 -11.03125 7.859375 -11.4375 C 8.054688 -11.84375 8.207031 -12.097656 8.3125 -12.203125 C 8.65625 -12.515625 9.132812 -12.734375 9.75 -12.859375 C 9.851562 -12.878906 9.929688 -12.890625 9.984375 -12.890625 C 10.035156 -12.890625 10.109375 -12.820312 10.203125 -12.6875 C 10.296875 -12.550781 10.347656 -12.441406 10.359375 -12.359375 C 10.335938 -12.109375 10.101562 -11.382812 9.65625 -10.1875 C 9.207031 -8.988281 8.957031 -8.3125 8.90625 -8.15625 C 8.21875 -5.769531 7.9375 -4.242188 8.0625 -3.578125 C 8.125 -3.203125 8.300781 -3.039062 8.59375 -3.09375 C 9.101562 -3.25 9.660156 -3.769531 10.265625 -4.65625 C 10.472656 -4.988281 10.6875 -5.320312 10.90625 -5.65625 C 11.132812 -5.988281 11.269531 -6.179688 11.3125 -6.234375 C 11.363281 -6.296875 11.4375 -6.335938 11.53125 -6.359375 Z M 11.53125 -6.359375 "/></g></g></g><g fill="#e4712a" fill-opacity="1"><g transform="translate(143.763817, 97.175375)"><g><path d="M 1.859375 -3.09375 L 1.890625 -2.890625 C 1.921875 -2.660156 2.035156 -2.476562 2.234375 -2.34375 C 2.429688 -2.207031 2.601562 -2.15625 2.75 -2.1875 C 3.84375 -2.375 4.773438 -2.703125 5.546875 -3.171875 C 6.316406 -3.640625 6.671875 -4.035156 6.609375 -4.359375 C 6.585938 -4.503906 6.414062 -4.609375 6.09375 -4.671875 C 5.769531 -4.734375 5.238281 -4.785156 4.5 -4.828125 C 3.757812 -4.867188 3.21875 -4.910156 2.875 -4.953125 C 2.53125 -4.992188 2.257812 -5.035156 2.0625 -5.078125 C 1.863281 -5.128906 1.648438 -5.207031 1.421875 -5.3125 C 0.941406 -5.539062 0.648438 -5.945312 0.546875 -6.53125 C 0.441406 -7.125 0.554688 -7.75 0.890625 -8.40625 C 1.234375 -9.070312 1.695312 -9.664062 2.28125 -10.1875 C 2.863281 -10.707031 3.507812 -11.191406 4.21875 -11.640625 C 5.601562 -12.523438 6.8125 -13.054688 7.84375 -13.234375 C 8.832031 -13.398438 9.484375 -13.289062 9.796875 -12.90625 C 9.890625 -12.757812 9.953125 -12.59375 9.984375 -12.40625 L 10 -12.296875 C 10.082031 -11.828125 10.039062 -11.4375 9.875 -11.125 C 9.71875 -10.820312 9.441406 -10.523438 9.046875 -10.234375 C 8.648438 -9.941406 8.320312 -9.769531 8.0625 -9.71875 C 7.800781 -9.675781 7.632812 -9.664062 7.5625 -9.6875 C 7.5 -9.71875 7.4375 -9.757812 7.375 -9.8125 C 7.320312 -9.875 7.257812 -9.910156 7.1875 -9.921875 C 7.113281 -9.929688 7.066406 -9.988281 7.046875 -10.09375 C 7.035156 -10.207031 7.066406 -10.328125 7.140625 -10.453125 C 7.210938 -10.585938 7.253906 -10.71875 7.265625 -10.84375 C 6.671875 -10.707031 6.070312 -10.460938 5.46875 -10.109375 C 4.863281 -9.753906 4.359375 -9.382812 3.953125 -9 C 3.546875 -8.613281 3.207031 -8.253906 2.9375 -7.921875 C 2.675781 -7.585938 2.554688 -7.351562 2.578125 -7.21875 C 2.597656 -7.09375 2.828125 -7.023438 3.265625 -7.015625 C 5.191406 -6.972656 6.472656 -6.863281 7.109375 -6.6875 C 7.742188 -6.507812 8.203125 -6.269531 8.484375 -5.96875 C 8.765625 -5.675781 8.929688 -5.394531 8.984375 -5.125 C 9.078125 -4.539062 8.9375 -3.953125 8.5625 -3.359375 C 8.1875 -2.765625 7.695312 -2.242188 7.09375 -1.796875 C 5.75 -0.835938 4.539062 -0.265625 3.46875 -0.078125 C 2.394531 0.0976562 1.625 0.0546875 1.15625 -0.203125 C 0.695312 -0.460938 0.425781 -0.8125 0.34375 -1.25 C 0.269531 -1.695312 0.316406 -2.132812 0.484375 -2.5625 C 0.648438 -2.988281 0.910156 -3.234375 1.265625 -3.296875 C 1.628906 -3.359375 1.828125 -3.289062 1.859375 -3.09375 Z M 1.859375 -3.09375 "/></g></g></g><g fill="#e4712a" fill-opacity="1"><g transform="translate(153.931514, 95.419211)"><g><path d="M 8.375 -11.84375 C 8.476562 -11.25 8.328125 -10.6875 7.921875 -10.15625 C 7.523438 -9.625 7.019531 -9.304688 6.40625 -9.203125 C 6.207031 -9.171875 6.066406 -9.195312 5.984375 -9.28125 C 5.910156 -9.363281 5.859375 -9.484375 5.828125 -9.640625 C 5.804688 -9.796875 5.796875 -9.945312 5.796875 -10.09375 C 5.503906 -9.925781 5.175781 -9.691406 4.8125 -9.390625 C 4.457031 -9.085938 4.023438 -8.664062 3.515625 -8.125 C 3.015625 -7.59375 2.785156 -7.21875 2.828125 -7 C 2.835938 -6.925781 2.945312 -6.90625 3.15625 -6.9375 C 3.375 -6.976562 3.6875 -7.113281 4.09375 -7.34375 C 4.507812 -7.570312 4.804688 -7.703125 4.984375 -7.734375 C 5.171875 -7.765625 5.296875 -7.773438 5.359375 -7.765625 C 5.484375 -7.722656 5.628906 -7.601562 5.796875 -7.40625 C 5.972656 -7.21875 6.070312 -7.0625 6.09375 -6.9375 C 6.113281 -6.820312 6.019531 -6.644531 5.8125 -6.40625 C 5.613281 -6.164062 5.375 -5.972656 5.09375 -5.828125 C 4.820312 -5.679688 4.640625 -5.566406 4.546875 -5.484375 C 2.828125 -4.085938 2.003906 -3.191406 2.078125 -2.796875 C 2.191406 -2.097656 2.847656 -1.851562 4.046875 -2.0625 C 4.816406 -2.195312 5.546875 -2.570312 6.234375 -3.1875 C 6.816406 -3.71875 7.332031 -4.238281 7.78125 -4.75 C 8.238281 -5.269531 8.53125 -5.59375 8.65625 -5.71875 C 8.78125 -5.84375 8.878906 -5.910156 8.953125 -5.921875 C 9.179688 -5.960938 9.335938 -5.722656 9.421875 -5.203125 C 9.515625 -4.679688 9.546875 -4.332031 9.515625 -4.15625 C 9.484375 -3.976562 9.335938 -3.738281 9.078125 -3.4375 C 7.429688 -1.539062 5.742188 -0.441406 4.015625 -0.140625 C 3.109375 0.015625 2.351562 0.015625 1.75 -0.140625 C 0.664062 -0.421875 0.0390625 -1.035156 -0.125 -1.984375 C -0.332031 -3.222656 0.363281 -4.3125 1.96875 -5.25 C 1.601562 -5.34375 1.347656 -5.503906 1.203125 -5.734375 C 1.066406 -5.960938 0.953125 -6.335938 0.859375 -6.859375 C 0.765625 -7.378906 0.914062 -7.972656 1.3125 -8.640625 C 1.707031 -9.316406 2.222656 -9.910156 2.859375 -10.421875 C 4.285156 -11.546875 5.625 -12.21875 6.875 -12.4375 C 7.164062 -12.488281 7.476562 -12.46875 7.8125 -12.375 C 8.144531 -12.28125 8.332031 -12.101562 8.375 -11.84375 Z M 8.375 -11.84375 "/></g></g></g><g fill="#e4712a" fill-opacity="1"><g transform="translate(162.708406, 93.903268)"><g><path d="M 1.859375 -3.09375 L 1.890625 -2.890625 C 1.921875 -2.660156 2.035156 -2.476562 2.234375 -2.34375 C 2.429688 -2.207031 2.601562 -2.15625 2.75 -2.1875 C 3.84375 -2.375 4.773438 -2.703125 5.546875 -3.171875 C 6.316406 -3.640625 6.671875 -4.035156 6.609375 -4.359375 C 6.585938 -4.503906 6.414062 -4.609375 6.09375 -4.671875 C 5.769531 -4.734375 5.238281 -4.785156 4.5 -4.828125 C 3.757812 -4.867188 3.21875 -4.910156 2.875 -4.953125 C 2.53125 -4.992188 2.257812 -5.035156 2.0625 -5.078125 C 1.863281 -5.128906 1.648438 -5.207031 1.421875 -5.3125 C 0.941406 -5.539062 0.648438 -5.945312 0.546875 -6.53125 C 0.441406 -7.125 0.554688 -7.75 0.890625 -8.40625 C 1.234375 -9.070312 1.695312 -9.664062 2.28125 -10.1875 C 2.863281 -10.707031 3.507812 -11.191406 4.21875 -11.640625 C 5.601562 -12.523438 6.8125 -13.054688 7.84375 -13.234375 C 8.832031 -13.398438 9.484375 -13.289062 9.796875 -12.90625 C 9.890625 -12.757812 9.953125 -12.59375 9.984375 -12.40625 L 10 -12.296875 C 10.082031 -11.828125 10.039062 -11.4375 9.875 -11.125 C 9.71875 -10.820312 9.441406 -10.523438 9.046875 -10.234375 C 8.648438 -9.941406 8.320312 -9.769531 8.0625 -9.71875 C 7.800781 -9.675781 7.632812 -9.664062 7.5625 -9.6875 C 7.5 -9.71875 7.4375 -9.757812 7.375 -9.8125 C 7.320312 -9.875 7.257812 -9.910156 7.1875 -9.921875 C 7.113281 -9.929688 7.066406 -9.988281 7.046875 -10.09375 C 7.035156 -10.207031 7.066406 -10.328125 7.140625 -10.453125 C 7.210938 -10.585938 7.253906 -10.71875 7.265625 -10.84375 C 6.671875 -10.707031 6.070312 -10.460938 5.46875 -10.109375 C 4.863281 -9.753906 4.359375 -9.382812 3.953125 -9 C 3.546875 -8.613281 3.207031 -8.253906 2.9375 -7.921875 C 2.675781 -7.585938 2.554688 -7.351562 2.578125 -7.21875 C 2.597656 -7.09375 2.828125 -7.023438 3.265625 -7.015625 C 5.191406 -6.972656 6.472656 -6.863281 7.109375 -6.6875 C 7.742188 -6.507812 8.203125 -6.269531 8.484375 -5.96875 C 8.765625 -5.675781 8.929688 -5.394531 8.984375 -5.125 C 9.078125 -4.539062 8.9375 -3.953125 8.5625 -3.359375 C 8.1875 -2.765625 7.695312 -2.242188 7.09375 -1.796875 C 5.75 -0.835938 4.539062 -0.265625 3.46875 -0.078125 C 2.394531 0.0976562 1.625 0.0546875 1.15625 -0.203125 C 0.695312 -0.460938 0.425781 -0.8125 0.34375 -1.25 C 0.269531 -1.695312 0.316406 -2.132812 0.484375 -2.5625 C 0.648438 -2.988281 0.910156 -3.234375 1.265625 -3.296875 C 1.628906 -3.359375 1.828125 -3.289062 1.859375 -3.09375 Z M 1.859375 -3.09375 "/></g></g></g></svg>